<svg xmlns="http://www.w3.org/2000/svg" viewBox="0 0 64 64"><title>Artboard-19</title><g id="Resume"><path d="M55,1H9A1,1,0,0,0,8,2V62a1,1,0,0,0,1,1H44L56,51V2A1,1,0,0,0,55,1Z" fill="#4294ff"/><path d="M50,8H38a1,1,0,0,1,0-2H50a1,1,0,0,1,0,2Z" fill="#376cfb"/><path d="M50,13H38a1,1,0,0,1,0-2H50a1,1,0,0,1,0,2Z" fill="#376cfb"/><path d="M50,18H38a1,1,0,0,1,0-2H50a1,1,0,0,1,0,2Z" fill="#376cfb"/><path d="M50,23H38a1,1,0,0,1,0-2H50a1,1,0,0,1,0,2Z" fill="#376cfb"/><path d="M50,28H33a1,1,0,0,1,0-2H50a1,1,0,0,1,0,2Z" fill="#376cfb"/><path d="M50,33H14a1,1,0,0,1,0-2H50a1,1,0,0,1,0,2Z" fill="#376cfb"/><path d="M50,38H14a1,1,0,0,1,0-2H50a1,1,0,0,1,0,2Z" fill="#376cfb"/><path d="M50,43H14a1,1,0,0,1,0-2H50a1,1,0,0,1,0,2Z" fill="#376cfb"/><path d="M50,48H14a1,1,0,0,1,0-2H50a1,1,0,0,1,0,2Z" fill="#376cfb"/><path d="M40,53H14a1,1,0,0,1,0-2H40a1,1,0,0,1,0,2Z" fill="#376cfb"/><path d="M40,58H14a1,1,0,0,1,0-2H40a1,1,0,0,1,0,2Z" fill="#376cfb"/><path d="M45,51a1,1,0,0,0-1,1V63L56,51Z" fill="#376cfb"/><path d="M27,7H20a2.01467,2.01467,0,0,0-2,2,2.996,2.996,0,0,0-3,3v6.27A1.99427,1.99427,0,0,1,16,18h2V15s3,0,4-2c0,0,1.33,3,8,3v2h2a1.99427,1.99427,0,0,1,1,.27V13A6.00475,6.00475,0,0,0,27,7Z" fill="#494a59"/><path d="M32,17H29v4a5.47014,5.47014,0,0,1-.09,1H32a2.00591,2.00591,0,0,0,2-2V19A2.00591,2.00591,0,0,0,32,17Z" fill="#f2c7c7"/><path d="M19,21V17H16a2.00591,2.00591,0,0,0-2,2v1a2.00591,2.00591,0,0,0,2,2h3.09A5.47014,5.47014,0,0,1,19,21Z" fill="#f2c7c7"/><path d="M22,12c-1,2-4,2-4,2v7a6,6,0,0,0,12,0V15C23.33331,15,22,12,22,12Z" fill="#ffe1e1"/></g></svg>