<svg xmlns="http://www.w3.org/2000/svg" viewBox="0 0 64 64"><title>Artboard-12</title><g id="Laptop"><path d="M54,14H10a5.00588,5.00588,0,0,0-5,5V49a1,1,0,0,0,1,1H58a1,1,0,0,0,1-1V19A5.00588,5.00588,0,0,0,54,14Z" fill="#4294ff"/><rect x="9" y="18" width="46" height="26" rx="1" ry="1" fill="#376cfb"/><path d="M36,23.46V28l-4,4-4-4V23.46a5.96469,5.96469,0,0,0,8,0Z" fill="#f2c7c7"/><path d="M35.08,6H29a3.00452,3.00452,0,0,0-3,3H25a2.996,2.996,0,0,0-3,3v6.27A1.99484,1.99484,0,0,1,23,18h3V14s3,2,12,2v2h3a1.99484,1.99484,0,0,1,1,.27V12.92A6.92229,6.92229,0,0,0,35.08,6Z" fill="#494a59"/><path d="M41,17H37v3a5.80321,5.80321,0,0,1-.35,2H41a2.00591,2.00591,0,0,0,2-2V19A2.00587,2.00587,0,0,0,41,17Z" fill="#f2c7c7"/><path d="M27,20V17H23a2.00587,2.00587,0,0,0-2,2v1a2.00591,2.00591,0,0,0,2,2h4.35A5.80321,5.80321,0,0,1,27,20Z" fill="#f2c7c7"/><path d="M48,34.85V44H16V34.85a2.99917,2.99917,0,0,1,1.66-2.68L22,30l6-3,4,4,4-4,6,3,4.34,2.17A2.99917,2.99917,0,0,1,48,34.85Z" fill="#e6ecff"/><polygon points="42 30 36 27 32 31 38 34 42 30" fill="#d0dbf7"/><polygon points="22 30 28 27 32 31 26 34 22 30" fill="#d0dbf7"/><polygon points="34 37 36.8 44 27.2 44 30 37 28 33 32 31 36 33 34 37" fill="#4f5460"/><polygon points="32 31 28 33 30 37 34 37 36 33 32 31" fill="#3c3f49"/><path d="M44,37v7H42V37a1,1,0,0,1,2,0Z" fill="#d0dbf7"/><path d="M22,37v7H20V37a1,1,0,0,1,2,0Z" fill="#d0dbf7"/><path d="M63,48H1a1,1,0,0,0-1,1v5a4.00458,4.00458,0,0,0,4,4H60a4.00458,4.00458,0,0,0,4-4V49A1,1,0,0,0,63,48Z" fill="#376cfb"/><path d="M52,48H12v5a1,1,0,0,0,1,1H51a1,1,0,0,0,1-1Z" fill="#2946ed"/><path d="M26,13v7a6,6,0,0,0,12,0V15C29,15,26,13,26,13Z" fill="#ffe1e1"/></g></svg>