<svg xmlns="http://www.w3.org/2000/svg" viewBox="0 0 64 64"><title>Artboard-7</title><g id="Location"><path d="M56.94189,62.66357l-5-14A.9999.9999,0,0,0,51,48H13a.9999.9999,0,0,0-.94189.66357l-5,14A1.00015,1.00015,0,0,0,8,64H56a1.00015,1.00015,0,0,0,.94189-1.33643Z" fill="#4294ff"/><path d="M47.74707,6.23633A22.79959,22.79959,0,0,0,30.53027.0459,22.9992,22.9992,0,0,0,21,43.19678a7.83059,7.83059,0,0,1,4,6.92431v1.59424A7.00284,7.00284,0,1,0,39,52V50.12109a7.8503,7.8503,0,0,1,4.01465-6.93261A22.99725,22.99725,0,0,0,47.74707,6.23633Z" fill="#e6ecff"/><circle cx="32" cy="23" r="18" fill="#d0dbf7"/><rect x="22" y="17" width="20" height="14" rx="3" ry="3" fill="#4294ff"/><path d="M37,19H27a1,1,0,0,1-1-1V15a2.002,2.002,0,0,1,2-2h8a2.002,2.002,0,0,1,2,2v3A1,1,0,0,1,37,19Zm-9-2h8V15H28Z" fill="#2946ed"/><path d="M39,17H25a3.00328,3.00328,0,0,0-3,3v1.72089l9.68359,3.22784a1.002,1.002,0,0,0,.63282,0L42,21.7207V20A3.00328,3.00328,0,0,0,39,17Z" fill="#376cfb"/><path d="M32,27a1,1,0,0,1-1-1V23a1,1,0,0,1,2,0v3A1,1,0,0,1,32,27Z" fill="#2946ed"/></g></svg>