<svg xmlns="http://www.w3.org/2000/svg" viewBox="0 0 64 64"><title>Artboard-21</title><g id="Folder"><path d="M60.63574,47.22168l-9.20849-9.209a1.00006,1.00006,0,0,0-1.68506.498,12.02649,12.02649,0,0,1-9.231,9.23145.99961.99961,0,0,0-.498,1.68457l9.2085,9.209A8.071,8.071,0,1,0,60.63574,47.22168Z" fill="#376cfb"/><path d="M18.832,9.44531l-4-6A.99963.99963,0,0,0,14,3H2A.99974.99974,0,0,0,1,4v6a.99974.99974,0,0,0,1,1H18a.99992.99992,0,0,0,.832-1.55469Z" fill="#d0dbf7"/><path d="M36,9H1V34a3,3,0,0,0,3,3H38a1,1,0,0,0,1-1V12A3,3,0,0,0,36,9Z" fill="#e6ecff"/><circle cx="38" cy="36" r="14" fill="#4294ff"/><circle cx="38" cy="36" r="10" fill="#376cfb"/><path d="M32,37a.99974.99974,0,0,1-1-1,7.00818,7.00818,0,0,1,7-7,1,1,0,0,1,0,2,5.00588,5.00588,0,0,0-5,5A.99974.99974,0,0,1,32,37Z" fill="#2946ed"/><path d="M60.63574,58.63574a8.07016,8.07016,0,0,0,0-11.41406l-1.63568-1.6358L47.586,56.99994l1.63568,1.6358a8.07016,8.07016,0,0,0,11.41406,0Z" fill="#2946ed"/></g></svg>