<svg xmlns="http://www.w3.org/2000/svg" viewBox="0 0 64 64"><title>Artboard-25</title><g id="Conversation"><path d="M63,1H27a.99943.99943,0,0,0-1,1V22a.99943.99943,0,0,0,1,1h3v5a1,1,0,0,0,1.55469.832L40.30273,23H63a.99943.99943,0,0,0,1-1V2A.99943.99943,0,0,0,63,1Z" fill="#4294ff"/><path d="M19.08,26H13a3.00452,3.00452,0,0,0-3,3H9a2.996,2.996,0,0,0-3,3v6.27A1.99484,1.99484,0,0,1,7,38h3V34s3,2,12,2v2h3a1.99484,1.99484,0,0,1,1,.27V32.92A6.92229,6.92229,0,0,0,19.08,26Z" fill="#494a59"/><path d="M25,37H21v3a5.80321,5.80321,0,0,1-.35,2H25a2.00591,2.00591,0,0,0,2-2V39A2.00587,2.00587,0,0,0,25,37Z" fill="#f2c7c7"/><path d="M11,37H7a2.00587,2.00587,0,0,0-2,2v1a2.00591,2.00591,0,0,0,2,2h4.35A5.80321,5.80321,0,0,1,11,40Z" fill="#f2c7c7"/><path d="M20,43.46V48l-4,4-4-4V43.46a5.96469,5.96469,0,0,0,8,0Z" fill="#f2c7c7"/><path d="M30.34,52.17,26,50l-6-3-4,4-4-4L6,50,1.66,52.17A2.99917,2.99917,0,0,0,0,54.85V62a1,1,0,0,0,1,1H31a1,1,0,0,0,1-1V54.85A2.99917,2.99917,0,0,0,30.34,52.17Z" fill="#e6ecff"/><path d="M10,33v7a6,6,0,0,0,12,0V35C13,35,10,33,10,33Z" fill="#ffe1e1"/><polygon points="26 50 20 47 16 51 22 54 26 50" fill="#d0dbf7"/><polygon points="6 50 12 47 16 51 10 54 6 50" fill="#d0dbf7"/><polygon points="18 57 20 63 12 63 14 57 12 53 16 51 20 53 18 57" fill="#4294ff"/><polygon points="16 51 12 53 14 57 18 57 20 53 16 51" fill="#376cfb"/><path d="M28,57v6H26V57a1,1,0,0,1,2,0Z" fill="#d0dbf7"/><path d="M6,57v6H4V57a1,1,0,0,1,2,0Z" fill="#d0dbf7"/><path d="M59,7H32a1,1,0,0,1,0-2H59a1,1,0,0,1,0,2Z" fill="#376cfb"/><path d="M52,11H32a1,1,0,0,1,0-2H52a1,1,0,0,1,0,2Z" fill="#376cfb"/><path d="M45,15H32a1,1,0,0,1,0-2H45a1,1,0,0,1,0,2Z" fill="#376cfb"/><path d="M45,19H32a1,1,0,0,1,0-2H45a1,1,0,0,1,0,2Z" fill="#376cfb"/></g></svg>