<svg xmlns="http://www.w3.org/2000/svg" viewBox="0 0 64 64"><title>Artboard-24</title><g id="work_time" data-name="work time"><circle cx="27" cy="31" r="27" fill="#4294ff"/><circle cx="27" cy="31" r="23" fill="#376cfb"/><path d="M52.08,22H46a3.00452,3.00452,0,0,0-3,3H42a2.996,2.996,0,0,0-3,3v7.27A1.99484,1.99484,0,0,1,40,35h3V31s3,2,12,2v2h3a1.99484,1.99484,0,0,1,1,.27V28.92A6.92229,6.92229,0,0,0,52.08,22Z" fill="#494a59"/><path d="M58,33H53v3a5.80321,5.80321,0,0,1-.35,2H58a2.00591,2.00591,0,0,0,2-2V35A2.00587,2.00587,0,0,0,58,33Z" fill="#f2c7c7"/><path d="M45,36V33H40a2.00587,2.00587,0,0,0-2,2v1a2.00591,2.00591,0,0,0,2,2h5.35A5.80321,5.80321,0,0,1,45,36Z" fill="#f2c7c7"/><path d="M53,39.46V44l-4,4-4-4V39.46a5.96469,5.96469,0,0,0,8,0Z" fill="#f2c7c7"/><path d="M62.34,48.17,58,46l-5-3-4,4-4-4-5,3-4.34,2.17A2.99917,2.99917,0,0,0,34,50.85V59a1,1,0,0,0,1,1H63a1,1,0,0,0,1-1V50.85A2.99917,2.99917,0,0,0,62.34,48.17Z" fill="#e6ecff"/><path d="M20,39a1,1,0,0,1-.707-1.707L26,30.58594V21a1,1,0,0,1,2,0V31a.99927.99927,0,0,1-.293.707l-7,7A.99676.99676,0,0,1,20,39Z" fill="#2946ed"/><path d="M27,16a.99943.99943,0,0,1-1-1V13a1,1,0,0,1,2,0v2A.99943.99943,0,0,1,27,16Z" fill="#2946ed"/><path d="M15.68652,20.68652a.99672.99672,0,0,1-.707-.293l-1.41406-1.41406a.99989.99989,0,1,1,1.41406-1.41406l1.41406,1.41406a1,1,0,0,1-.707,1.707Z" fill="#2946ed"/><path d="M38.31348,20.68652a.99672.99672,0,0,0,.707-.293l1.41406-1.41406a.99989.99989,0,1,0-1.41406-1.41406l-1.41406,1.41406a1,1,0,0,0,.707,1.707Z" fill="#2946ed"/><path d="M11,32H9a1,1,0,0,1,0-2h2a1,1,0,0,1,0,2Z" fill="#2946ed"/><path d="M14.27246,44.72754a1,1,0,0,1-.707-1.707l1.41406-1.41406a.99989.99989,0,1,1,1.41406,1.41406l-1.41406,1.41406A.99676.99676,0,0,1,14.27246,44.72754Z" fill="#2946ed"/><path d="M27,50a.99943.99943,0,0,1-1-1V47a1,1,0,0,1,2,0v2A.99943.99943,0,0,1,27,50Z" fill="#2946ed"/><path d="M43,29v7a6,6,0,0,0,12,0V31C46,31,43,29,43,29Z" fill="#ffe1e1"/><polygon points="58 46 53 43 49 47 54 50 58 46" fill="#d0dbf7"/><polygon points="40 46 45 43 49 47 44 50 40 46" fill="#d0dbf7"/><polygon points="45 60 47 53 45.15 49.31 49 47 52.85 49.31 51 53 53 60 45 60" fill="#4294ff"/><polygon points="45.15 49.31 47 53 51 53 52.85 49.31 49 47 45.15 49.31" fill="#376cfb"/><path d="M60,54v6H58V54a1,1,0,0,1,2,0Z" fill="#d0dbf7"/><path d="M40,54v6H38V54a1,1,0,0,1,2,0Z" fill="#d0dbf7"/></g></svg>