<svg xmlns="http://www.w3.org/2000/svg" viewBox="0 0 64 64"><title>Artboard-27</title><g id="Eye"><path d="M63.84814,37.46973a39.02784,39.02784,0,0,0-63.69628,0,1.00107,1.00107,0,0,0,0,1.06054,39.02784,39.02784,0,0,0,63.69628,0A1.00107,1.00107,0,0,0,63.84814,37.46973Z" fill="#e6ecff"/><circle cx="32" cy="38" r="13" fill="#4294ff"/><path d="M43.14478,44.6582a18.80584,18.80584,0,0,0-22.28962-.00012,12.96355,12.96355,0,0,0,22.28962.00012Z" fill="#376cfb"/><circle cx="32" cy="33" r="6" fill="#376cfb"/><path d="M32,19a.99974.99974,0,0,1-1-1V10a1,1,0,0,1,2,0v8A.99974.99974,0,0,1,32,19Z" fill="#4294ff"/><path d="M18.00049,21a.99619.99619,0,0,1-.78125-.375l-4-5a1.00011,1.00011,0,1,1,1.56152-1.25l4,5A.99991.99991,0,0,1,18.00049,21Z" fill="#4294ff"/><path d="M45.99951,21a.99991.99991,0,0,1-.78027-1.625l4-5a1.00011,1.00011,0,1,1,1.56152,1.25l-4,5A.99992.99992,0,0,1,45.99951,21Z" fill="#4294ff"/></g></svg>