<svg xmlns="http://www.w3.org/2000/svg" viewBox="0 0 64 64"><title>Artboard-11</title><g id="Vacancy_Chair" data-name="Vacancy Chair"><path d="M60,30H56a1,1,0,0,0-1,1v6H50a1,1,0,0,0-1,1v4a1,1,0,0,0,1,1h6a5.00588,5.00588,0,0,0,5-5V31A1,1,0,0,0,60,30Z" fill="#e6ecff"/><path d="M14,37H9V31a1,1,0,0,0-1-1H4a1,1,0,0,0-1,1v7a5.00588,5.00588,0,0,0,5,5h6a1,1,0,0,0,1-1V38A1,1,0,0,0,14,37Z" fill="#e6ecff"/><path d="M37,6H27A11.01245,11.01245,0,0,0,16,17V37a1,1,0,0,0,1,1H47a1,1,0,0,0,1-1V17A11.01245,11.01245,0,0,0,37,6Z" fill="#e6ecff"/><circle cx="32" cy="10" r="10" fill="#4294ff"/><circle cx="32" cy="15" r="1" fill="#376cfb"/><path d="M32,13a1,1,0,0,1-1-1v-.51318a3.05934,3.05934,0,0,1,2.09424-2.90577A1.32449,1.32449,0,0,0,32.67529,6H31a1.0013,1.0013,0,0,0-1,1,1,1,0,0,1-2,0,3.00328,3.00328,0,0,1,3-3h1.67529a3.32462,3.32462,0,0,1,1.05176,6.47852A1.06157,1.06157,0,0,0,33,11.48682V12A1,1,0,0,1,32,13Z" fill="#376cfb"/><path d="M52.49854,54.669l-2.21045-5.53174A4.9755,4.9755,0,0,0,45.6499,46H35V43a1,1,0,0,0-1-1H30a1,1,0,0,0-1,1v3H18.3501a4.97551,4.97551,0,0,0-4.63867,3.13916l-2.21,5.54a.99981.99981,0,0,0,1.13477,1.34912A1.7814,1.7814,0,0,1,13,56a2.9746,2.9746,0,0,1,2.35352,1.14746,1.00036,1.00036,0,0,0,1.71533-.24658L19.02734,52H29v3.54a1.00011,1.00011,0,0,0,1.499.8667,2.98372,2.98372,0,0,1,3.002,0A1.00011,1.00011,0,0,0,35,55.54V52h9.97266l1.95849,4.90088a1.00025,1.00025,0,0,0,1.71533.24658,2.94344,2.94344,0,0,1,2.76612-1.12012A.99968.99968,0,0,0,52.49854,54.669Z" fill="#e6ecff"/><rect x="52" y="26" width="12" height="6" rx="1" ry="1" fill="#d0dbf7"/><rect y="26" width="12" height="6" rx="1" ry="1" fill="#d0dbf7"/><rect x="13" y="36" width="38" height="8" rx="1" ry="1" fill="#d0dbf7"/><circle cx="32" cy="59" r="5" fill="#d0dbf7"/><circle cx="51" cy="59" r="5" fill="#d0dbf7"/><circle cx="13" cy="59" r="5" fill="#d0dbf7"/></g></svg>