<svg xmlns="http://www.w3.org/2000/svg" viewBox="0 0 64 64"><title>Artboard-18</title><g id="Skill"><path d="M32,24V41.71L28,40l-6-3-4,4-4-4L8,40,4,41.71V24a14,14,0,0,1,28,0Z" fill="#494a59"/><path d="M33.18005,41.22,28,39l-6-3-4,4-4-4L8,39,2.82,41.22A3.00284,3.00284,0,0,0,1,43.98V53a1,1,0,0,0,1,1H34a1,1,0,0,0,1-1V43.98A3.00284,3.00284,0,0,0,33.18005,41.22Z" fill="#e6ecff"/><path d="M12,20v7a6,6,0,0,0,12,0V22C15,22,12,20,12,20Z" fill="#ffe1e1"/><path d="M26,24H24v3a5.80321,5.80321,0,0,1-.35,2H26a2.00591,2.00591,0,0,0,2-2V26A2.00587,2.00587,0,0,0,26,24Z" fill="#f2c7c7"/><path d="M12,27V24H10a2.00587,2.00587,0,0,0-2,2v1a2.00591,2.00591,0,0,0,2,2h2.35A5.80321,5.80321,0,0,1,12,27Z" fill="#f2c7c7"/><path d="M18,33a5.9306,5.9306,0,0,1-4-1.54V36l4,4,4-4V31.46A5.9306,5.9306,0,0,1,18,33Z" fill="#f2c7c7"/><polygon points="28 39 22 36 18 40 24 43 28 39" fill="#d0dbf7"/><polygon points="8 39 14 36 18 40 12 43 8 39" fill="#d0dbf7"/><polygon points="13.33 54 16 46 14 42 18 40 22 42 20 46 22.67 54 13.33 54" fill="#4294ff"/><polygon points="14 42 16 46 20 46 22 42 18 40 14 42" fill="#376cfb"/><path d="M29.29,48.88,29,48.59V47a1,1,0,0,0-2,0v2a1.03273,1.03273,0,0,0,.29.71l.59.58A3.83825,3.83825,0,0,1,29,53v1h2V53A5.78645,5.78645,0,0,0,29.29,48.88Z" fill="#d0dbf7"/><path d="M8,46a1.003,1.003,0,0,0-1,1v1.59l-.29.29A5.78645,5.78645,0,0,0,5,53v1H7V53a3.83825,3.83825,0,0,1,1.12-2.71l.59-.58A1.03273,1.03273,0,0,0,9,49V47A1.003,1.003,0,0,0,8,46Z" fill="#d0dbf7"/><rect x="39" y="10" width="25" height="8" rx="1" ry="1" fill="#e6ecff"/><rect x="39" y="22" width="25" height="8" rx="1" ry="1" fill="#e6ecff"/><rect x="39" y="34" width="25" height="8" rx="1" ry="1" fill="#e6ecff"/><rect x="39" y="46" width="25" height="8" rx="1" ry="1" fill="#e6ecff"/><path d="M59,10H40a.99974.99974,0,0,0-1,1v6a.99974.99974,0,0,0,1,1H59Z" fill="#4294ff"/><path d="M51,22H40a.99974.99974,0,0,0-1,1v6a.99974.99974,0,0,0,1,1H51Z" fill="#4294ff"/><path d="M47,46H40a.99974.99974,0,0,0-1,1v6a.99974.99974,0,0,0,1,1h7Z" fill="#4294ff"/><path d="M57,34H40a.99974.99974,0,0,0-1,1v6a.99974.99974,0,0,0,1,1H57Z" fill="#4294ff"/></g></svg>