<svg xmlns="http://www.w3.org/2000/svg" viewBox="0 0 64 64"><title>Artboard-34</title><g id="Employe_Growth" data-name="Employe Growth"><path d="M33.78906,34.38574l-7-9a1.03586,1.03586,0,0,0-1.57812,0l-7,9A.99985.99985,0,0,0,19,36h3V63a.99943.99943,0,0,0,1,1h6a.99943.99943,0,0,0,1-1V36h3a.99985.99985,0,0,0,.78906-1.61426Z" fill="#4294ff"/><path d="M10.78906,38.38574a1.03586,1.03586,0,0,0-1.57812,0l-7,9A.99985.99985,0,0,0,3,49H6V63a.99943.99943,0,0,0,1,1h6a.99943.99943,0,0,0,1-1V49h3a.99985.99985,0,0,0,.78906-1.61426Z" fill="#4294ff"/><path d="M56,36V49h3a2,2,0,0,0,2-2V36Z" fill="#f2c7c7"/><path d="M39,47a2,2,0,0,0,2,2h3V36H39Z" fill="#f2c7c7"/><path d="M58,5v7.5a2.503,2.503,0,0,0-1.5-.5H55V10c-7.5,0-10-2-10-2v4H43.5a2.503,2.503,0,0,0-1.5.5V6a2.996,2.996,0,0,1,3-3h1a3.00452,3.00452,0,0,1,3-3h4A5.00181,5.00181,0,0,1,58,5Z" fill="#494a59"/><path d="M56.5,11H54v2a4.94123,4.94123,0,0,1-1,3h3.5a2.5,2.5,0,0,0,0-5Z" fill="#f2c7c7"/><path d="M46,11H43.5a2.5,2.5,0,1,0,0,5H47a4.94123,4.94123,0,0,1-1-3Z" fill="#f2c7c7"/><path d="M53,16v5l-3,3-3-3V16a5,5,0,0,0,6,0Z" fill="#f2c7c7"/><path d="M61.06,24.83,58,23l-5-3-3,3-3-3-5,3-3.06,1.83A4.024,4.024,0,0,0,37,28.26V36a1,1,0,0,0,1,1h5v5H57V37h5a1,1,0,0,0,1-1V28.26A4.024,4.024,0,0,0,61.06,24.83Z" fill="#e6ecff"/><path d="M55,9v4a5,5,0,0,1-5,5h0a5,5,0,0,1-5-5V7S47.5,9,55,9Z" fill="#ffe1e1"/><polygon points="58 23 53 20 50 23 55 26 58 23" fill="#d0dbf7"/><polygon points="42 23 47 20 50 23 45 26 42 23" fill="#d0dbf7"/><rect x="43" y="41" width="14" height="22" fill="#4294ff"/><path d="M50,64a.99943.99943,0,0,1-1-1V47a1,1,0,0,1,2,0V63A.99943.99943,0,0,1,50,64Z" fill="#376cfb"/><polygon points="53.17 35.08 50 37 46.83 35.08 48 28 47.11 24.73 50 23 52.89 24.73 52 28 53.17 35.08" fill="#4294ff"/><polygon points="47.11 24.73 48 28 52 28 52.89 24.73 50 23 47.11 24.73" fill="#376cfb"/><path d="M59,31v6H57V31a1,1,0,0,1,2,0Z" fill="#d0dbf7"/><path d="M43,31v6H41V31a1,1,0,0,1,2,0Z" fill="#d0dbf7"/><path d="M63,64H1a1,1,0,0,1,0-2H63a1,1,0,0,1,0,2Z" fill="#2946ed"/></g></svg>