<svg xmlns="http://www.w3.org/2000/svg" viewBox="0 0 64 64"><title>Artboard-15</title><g id="Certificate"><rect x="1" y="9" width="62" height="42" rx="1" ry="1" fill="#e6ecff"/><path d="M58,20a6.00657,6.00657,0,0,1-6-6,.99974.99974,0,0,0-1-1H13a.99974.99974,0,0,0-1,1,6.00657,6.00657,0,0,1-6,6,.99974.99974,0,0,0-1,1V39a.99974.99974,0,0,0,1,1,6.00657,6.00657,0,0,1,6,6,.99974.99974,0,0,0,1,1H51a.99974.99974,0,0,0,1-1,6.00657,6.00657,0,0,1,6-6,.99974.99974,0,0,0,1-1V21A.99974.99974,0,0,0,58,20Z" fill="#d0dbf7"/><path d="M47,20H17a1,1,0,0,1,0-2H47a1,1,0,0,1,0,2Z" fill="#4294ff"/><path d="M31,24H17a1,1,0,0,1,0-2H31a1,1,0,0,1,0,2Z" fill="#4294ff"/><path d="M28,28H17a1,1,0,0,1,0-2H28a1,1,0,0,1,0,2Z" fill="#4294ff"/><path d="M25,32H17a1,1,0,0,1,0-2h8a1,1,0,0,1,0,2Z" fill="#4294ff"/><path d="M42.17285,40.415l-.23242-.04248a3.89011,3.89011,0,0,0-1.88672-.03125,3.67735,3.67735,0,0,0-1.42383,1.07324,6.10743,6.10743,0,0,1-.60058.58887,3.0114,3.0114,0,0,1-.65918-.58887,3.67089,3.67089,0,0,0-1.44336-1.0791,3.88089,3.88089,0,0,0-1.86719.03711l-.23242.04248A.99992.99992,0,0,0,33,41.3999V54a1.00038,1.00038,0,0,0,1.44727.89453L38,53.11816l3.55273,1.77637A1.00038,1.00038,0,0,0,43,54V41.3999A.99992.99992,0,0,0,42.17285,40.415Z" fill="#376cfb"/><path d="M17.001,41.00049a1.00041,1.00041,0,0,1-.41407-1.91113c.00684-.00342.11231-.05225.27247-.14112a4.49858,4.49858,0,0,1-.67286-1.21094,2.64916,2.64916,0,0,1,1.39453-3.56884,2.24621,2.24621,0,0,1,2.97168,1.21142,3.43933,3.43933,0,0,1-.5498,3.51123c.29.04346.63477-.13427,1.4082-.69922a1.00119,1.00119,0,0,1,1.37891.19483,1.46227,1.46227,0,0,0,1.24512.61377L25,39a1,1,0,0,1,0,2H24a3.55236,3.55236,0,0,1-2.11426-.70654,2.88261,2.88261,0,0,1-3.1748.21875c-.09668-.05616-.19043-.11328-.28223-.17139a7.1906,7.1906,0,0,1-1.01758.5708A.99716.99716,0,0,1,17.001,41.00049ZM18.48535,35.999a.57147.57147,0,0,0-.1875.03662c-.33691.1294-.42285.499-.23437,1.01319a2.54493,2.54493,0,0,0,.35058.63867,1.55066,1.55066,0,0,0,.28321-1.56152A.20764.20764,0,0,0,18.48535,35.999Z" fill="#4294ff"/><path d="M47.02344,34.814A2.99733,2.99733,0,0,1,46.66992,34a2.99733,2.99733,0,0,1,.35352-.814,2.883,2.883,0,0,0,.48633-2.27686,2.952,2.952,0,0,0-1.77149-1.58789,3.185,3.185,0,0,1-.72949-.41943,3.16538,3.16538,0,0,1-.17383-.82471,2.9272,2.9272,0,0,0-.95605-2.166,2.92689,2.92689,0,0,0-2.34082-.24023,3.39229,3.39229,0,0,1-.8506.09082,3.16908,3.16908,0,0,1-.60644-.55274A2.97022,2.97022,0,0,0,38,24a2.97022,2.97022,0,0,0-2.081,1.209,3.35264,3.35264,0,0,1-.59473.54883,3.07847,3.07847,0,0,1-.86231-.08691,2.91639,2.91639,0,0,0-2.33593.23681,2.92707,2.92707,0,0,0-.96094,2.16944,3.19344,3.19344,0,0,1-.17285.82373,3.17814,3.17814,0,0,1-.73047.42041,2.94652,2.94652,0,0,0-1.76953,1.58154,2.87719,2.87719,0,0,0,.48437,2.28321,2.99733,2.99733,0,0,1,.35352.814,2.99733,2.99733,0,0,1-.35352.814,2.87755,2.87755,0,0,0-.48828,2.272,2.94825,2.94825,0,0,0,1.77344,1.59277,3.185,3.185,0,0,1,.72949.41943,3.16538,3.16538,0,0,1,.17383.82471,2.9272,2.9272,0,0,0,.95605,2.166,2.92653,2.92653,0,0,0,2.34082.24023,3.23656,3.23656,0,0,1,.85058-.09082,3.16851,3.16851,0,0,1,.60646.55274A2.97022,2.97022,0,0,0,38,44a2.97022,2.97022,0,0,0,2.081-1.209,3.35264,3.35264,0,0,1,.59473-.54883,3.075,3.075,0,0,1,.86231.08691,2.92866,2.92866,0,0,0,2.33593-.23681,2.92707,2.92707,0,0,0,.96094-2.16944,3.19344,3.19344,0,0,1,.17285-.82373,3.17814,3.17814,0,0,1,.73047-.42041,2.94649,2.94649,0,0,0,1.76953-1.58154A2.87719,2.87719,0,0,0,47.02344,34.814Z" fill="#4294ff"/><circle cx="38" cy="34" r="5" fill="#376cfb"/></g></svg>