<svg xmlns="http://www.w3.org/2000/svg" viewBox="0 0 64 64"><title>Artboard-6</title><g id="Candidate"><rect x="47" y="7" width="14" height="14" rx="1" ry="1" fill="#4294ff"/><rect x="47" y="25" width="14" height="14" rx="1" ry="1" fill="#4294ff"/><rect x="47" y="43" width="14" height="14" rx="1" ry="1" fill="#4294ff"/><path d="M26,1H15a3.00452,3.00452,0,0,0-3,3A5.00181,5.00181,0,0,0,7,9v8.27A1.99427,1.99427,0,0,1,8,17h3V13s2.22.14,6-3c0,0,4,4,14,4v3h3a1.99427,1.99427,0,0,1,1,.27V10A9.00076,9.00076,0,0,0,26,1Z" fill="#494a59"/><path d="M12,21V16H8a2.00591,2.00591,0,0,0-2,2v3a2.00591,2.00591,0,0,0,2,2h4.2A10.04844,10.04844,0,0,1,12,21Z" fill="#f2c7c7"/><path d="M34,16H30v5a10.04844,10.04844,0,0,1-.2,2H34a2.00591,2.00591,0,0,0,2-2V18A2.00591,2.00591,0,0,0,34,16Z" fill="#f2c7c7"/><path d="M21,30a9.93425,9.93425,0,0,1-6-2.01V36l3.6,3L21,41l2.4-2L27,36V27.99A9.93425,9.93425,0,0,1,21,30Z" fill="#f2c7c7"/><path d="M38.79,40.89,33,38l-6-3-3.6,3L21,40l-2.4-2L15,35,9,38,3.21,40.89A4.02015,4.02015,0,0,0,1,44.47V62a1,1,0,0,0,1,1H40a1,1,0,0,0,1-1V44.47A4.02015,4.02015,0,0,0,38.79,40.89Z" fill="#e6ecff"/><path d="M17,9c-3.77777,3.14288-6,3-6,3v9a10,10,0,0,0,20,0V13C21,13,17,9,17,9Z" fill="#ffe1e1"/><polygon points="33 38 27 35 21 40 27 43 33 38" fill="#d0dbf7"/><polygon points="9 38 15 35 21 40 15 43 9 38" fill="#d0dbf7"/><polygon points="16 63 19 47 17 42 21 40 25 42 23 47 26 63 16 63" fill="#4294ff"/><polygon points="21 40 17 42 19 47 23 47 25 42 21 40" fill="#376cfb"/><path d="M35,49V63H33V49a1,1,0,0,1,2,0Z" fill="#d0dbf7"/><path d="M9,49V63H7V49a1,1,0,0,1,2,0Z" fill="#d0dbf7"/><path d="M55,17a.99676.99676,0,0,1-.707-.293l-3-3A.99989.99989,0,0,1,52.707,12.293L55,14.58594l6.293-6.293A.99989.99989,0,1,1,62.707,9.707l-7,7A.99676.99676,0,0,1,55,17Z" fill="#376cfb"/><path d="M55,35a.99676.99676,0,0,1-.707-.293l-3-3A.99989.99989,0,0,1,52.707,30.293L55,32.58594l6.293-6.293A.99989.99989,0,1,1,62.707,27.707l-7,7A.99676.99676,0,0,1,55,35Z" fill="#376cfb"/><path d="M55,53a.99676.99676,0,0,1-.707-.293l-3-3A.99989.99989,0,0,1,52.707,48.293L55,50.58594l6.293-6.293A.99989.99989,0,0,1,62.707,45.707l-7,7A.99676.99676,0,0,1,55,53Z" fill="#376cfb"/></g></svg>