<svg xmlns="http://www.w3.org/2000/svg" viewBox="0 0 64 64"><title>Artboard-5</title><g id="Test"><path d="M49,11,38,0H6A1,1,0,0,0,5,1V53a1,1,0,0,0,1,1H48a1,1,0,0,0,1-1Z" fill="#e6ecff"/><rect x="9" y="4" width="10" height="10" rx="1" ry="1" fill="#4294ff"/><rect x="9" y="16" width="10" height="10" rx="1" ry="1" fill="#4294ff"/><rect x="9" y="28" width="10" height="10" rx="1" ry="1" fill="#4294ff"/><rect x="9" y="40" width="10" height="10" rx="1" ry="1" fill="#4294ff"/><circle cx="49" cy="54" r="10" fill="#4294ff"/><path d="M52,58a.99676.99676,0,0,1-.707-.293l-3-3A1.00012,1.00012,0,0,1,48,54V50a1,1,0,0,1,2,0v3.58594l2.707,2.707A1,1,0,0,1,52,58Z" fill="#376cfb"/><path d="M15,11a.99676.99676,0,0,1-.707-.293l-2-2A.99989.99989,0,0,1,13.707,7.293L15,8.58594l4.293-4.293A.99989.99989,0,0,1,20.707,5.707l-5,5A.99676.99676,0,0,1,15,11Z" fill="#376cfb"/><path d="M15,23a.99676.99676,0,0,1-.707-.293l-2-2A.99989.99989,0,0,1,13.707,19.293L15,20.58594l4.293-4.293A.99989.99989,0,0,1,20.707,17.707l-5,5A.99676.99676,0,0,1,15,23Z" fill="#376cfb"/><path d="M15,35a.99676.99676,0,0,1-.707-.293l-2-2A.99989.99989,0,1,1,13.707,31.293L15,32.58594l4.293-4.293A.99989.99989,0,0,1,20.707,29.707l-5,5A.99676.99676,0,0,1,15,35Z" fill="#376cfb"/><path d="M15,47a.99676.99676,0,0,1-.707-.293l-2-2A.99989.99989,0,0,1,13.707,43.293L15,44.58594l4.293-4.293A.99989.99989,0,0,1,20.707,41.707l-5,5A.99676.99676,0,0,1,15,47Z" fill="#376cfb"/><path d="M34,8H23a1,1,0,0,1,0-2H34a1,1,0,0,1,0,2Z" fill="#4294ff"/><path d="M34,12H23a1,1,0,0,1,0-2H34a1,1,0,0,1,0,2Z" fill="#4294ff"/><path d="M44,20H23a1,1,0,0,1,0-2H44a1,1,0,0,1,0,2Z" fill="#4294ff"/><path d="M38,24H23a1,1,0,0,1,0-2H38a1,1,0,0,1,0,2Z" fill="#4294ff"/><path d="M44,32H23a1,1,0,0,1,0-2H44a1,1,0,0,1,0,2Z" fill="#4294ff"/><path d="M38,36H23a1,1,0,0,1,0-2H38a1,1,0,0,1,0,2Z" fill="#4294ff"/><path d="M38,44H23a1,1,0,0,1,0-2H38a1,1,0,0,1,0,2Z" fill="#4294ff"/><path d="M34,48H23a1,1,0,0,1,0-2H34a1,1,0,0,1,0,2Z" fill="#4294ff"/><path d="M38,0V10a1,1,0,0,0,1,1H49Z" fill="#d0dbf7"/></g></svg>