<svg xmlns="http://www.w3.org/2000/svg" viewBox="0 0 64 64"><title>Artboard-38</title><g id="Goal"><path d="M50,12H31a.99991.99991,0,0,0-.707,1.707L35.58594,19l-5.293,5.293A.99991.99991,0,0,0,31,26H50a.99943.99943,0,0,0,1-1V13A.99943.99943,0,0,0,50,12Z" fill="#4294ff"/><path d="M54.5,7.59375a1.00017,1.00017,0,0,0-.999,0,2.98841,2.98841,0,0,1-3.002,0A.99951.99951,0,0,0,49,8.46V33a.99943.99943,0,0,0,1,1h4a.99943.99943,0,0,0,1-1V8.46A.99985.99985,0,0,0,54.5,7.59375Z" fill="#376cfb"/><rect x="25" y="42" width="14" height="22" rx="1" ry="1" fill="#4294ff"/><rect x="5" y="51" width="14" height="13" rx="1" ry="1" fill="#4294ff"/><circle cx="52" cy="5" r="5" fill="#4294ff"/><rect x="45" y="32" width="14" height="32" rx="1" ry="1" fill="#4294ff"/><path d="M63,64H1a1,1,0,0,1,0-2H63a1,1,0,0,1,0,2Z" fill="#376cfb"/></g></svg>