<svg xmlns="http://www.w3.org/2000/svg" viewBox="0 0 64 64"><title>Artboard-17</title><g id="CV_Hand" data-name="CV Hand"><path d="M22.707,59.293l-13-13a.99962.99962,0,0,0-1.41406,0l-3,3a.99962.99962,0,0,0,0,1.41406l13,13a.99963.99963,0,0,0,1.41406,0l3-3A.99962.99962,0,0,0,22.707,59.293Z" fill="#376cfb"/><path d="M56,7,49,0H23a1,1,0,0,0-1,1V39a1,1,0,0,0,1,1H39.5a1.49136,1.49136,0,0,1,1.06249.43652A1.50329,1.50329,0,0,1,39.5,43H29a3.01518,3.01518,0,0,0-2.99811,2.892A3.13589,3.13589,0,0,0,29.17515,49H45a.99964.99964,0,0,0,.70685-.29279l8.17011-8.1701a1.80942,1.80942,0,0,1,1.1785-.529A.99964.99964,0,0,0,56,39.00977Z" fill="#4294ff"/><path d="M49,0V6a1,1,0,0,0,1,1h6Z" fill="#376cfb"/><path d="M57.87842,39.12158a3.9202,3.9202,0,0,0-5.41406,0L44.58594,47H29a1,1,0,0,1,0-2H39.5a3.5,3.5,0,0,0,0-7H19a1.00012,1.00012,0,0,0-.707.293l-6,6a.99962.99962,0,0,0,0,1.41406l11,11a.99963.99963,0,0,0,1.41406,0L26.41406,55H47a1.00012,1.00012,0,0,0,.707-.293L57.87842,44.53564a3.82762,3.82762,0,0,0,0-5.41406Z" fill="#ffe1e1"/><path d="M27.707,58.293l-17-17a.99962.99962,0,0,0-1.41406,0l-3,3a.99962.99962,0,0,0,0,1.41406l17,17a.99963.99963,0,0,0,1.41406,0l3-3A.99962.99962,0,0,0,27.707,58.293Z" fill="#4294ff"/><circle cx="39" cy="12" r="8" fill="#376cfb"/><path d="M39,14a8.0123,8.0123,0,0,0-6.22363,3.01526A7.981,7.981,0,0,0,45.22382,17.015,8.01186,8.01186,0,0,0,39,14Z" fill="#2946ed"/><circle cx="39" cy="9" r="3" fill="#2946ed"/><path d="M51,24H27a1,1,0,0,1,0-2H51a1,1,0,0,1,0,2Z" fill="#376cfb"/><path d="M51,28H27a1,1,0,0,1,0-2H51a1,1,0,0,1,0,2Z" fill="#376cfb"/><path d="M51,32H27a1,1,0,0,1,0-2H51a1,1,0,0,1,0,2Z" fill="#376cfb"/><path d="M51,36H27a1,1,0,0,1,0-2H51a1,1,0,0,1,0,2Z" fill="#376cfb"/></g></svg>