<svg xmlns="http://www.w3.org/2000/svg" viewBox="0 0 64 64"><title>Artboard-9</title><g id="Telephone"><path d="M63,1.999H29a.99974.99974,0,0,0-1,1v24a.99974.99974,0,0,0,1,1h3V33a.99947.99947,0,0,0,1.419.90771L46.21973,27.999H63a.99974.99974,0,0,0,1-1v-24A.99974.99974,0,0,0,63,1.999Z" fill="#e6ecff"/><path d="M49.78906,37.53516,48.67969,37.313a11.66986,11.66986,0,0,0-11.48633,4.32666,3.76111,3.76111,0,0,1-5.05176.86377A44.9525,44.9525,0,0,1,19.49609,29.85791a3.759,3.759,0,0,1,.86329-5.05127,11.67226,11.67226,0,0,0,4.32714-11.4873L24.46387,12.21A10.24273,10.24273,0,0,0,14.44629,3.99707,14.35415,14.35415,0,0,0,2.78516,9.897a13.99951,13.99951,0,0,0-2.14942,12.564A59.01731,59.01731,0,0,0,39.53809,61.36328a13.99421,13.99421,0,0,0,12.56445-2.1499A14.35345,14.35345,0,0,0,58.002,47.55273,10.24272,10.24272,0,0,0,49.78906,37.53516Z" fill="#4294ff"/><circle cx="39" cy="10.99902" r="5" fill="#4294ff"/><path d="M41,16.999H37a4.00428,4.00428,0,0,0-4,4v2a.99974.99974,0,0,0,1,1H44a.99974.99974,0,0,0,1-1v-2A4.00428,4.00428,0,0,0,41,16.999Z" fill="#4294ff"/><path d="M58.707,6.293a.99962.99962,0,0,0-1.41406,0L52,11.58594,49.707,9.293A.99989.99989,0,0,0,48.293,10.707l3,3a.99963.99963,0,0,0,1.41406,0l6-6A.99962.99962,0,0,0,58.707,6.293Z" fill="#4294ff"/><path d="M52,22a.99676.99676,0,0,1-.707-.293l-3-3A.99989.99989,0,0,1,49.707,17.293L52,19.58594l5.293-5.293A.99989.99989,0,1,1,58.707,15.707l-6,6A.99676.99676,0,0,1,52,22Z" fill="#4294ff"/></g></svg>