<svg xmlns="http://www.w3.org/2000/svg" viewBox="0 0 64 64"><title>Artboard-28</title><g id="Interview_Hierarchy-2" data-name="Interview Hierarchy"><circle cx="7" cy="29" r="5" fill="#4294ff"/><path d="M10,35H4a4.00427,4.00427,0,0,0-4,4v2a.99974.99974,0,0,0,1,1H13a.99974.99974,0,0,0,1-1V39A4.00427,4.00427,0,0,0,10,35Z" fill="#4294ff"/><circle cx="57" cy="29" r="5" fill="#4294ff"/><path d="M60,35H54a4.004,4.004,0,0,0-4,4v2a.99943.99943,0,0,0,1,1H63a.99943.99943,0,0,0,1-1V39A4.004,4.004,0,0,0,60,35Z" fill="#4294ff"/><circle cx="57" cy="51" r="5" fill="#4294ff"/><path d="M60,57H54a4.004,4.004,0,0,0-4,4v2a.99943.99943,0,0,0,1,1H63a.99943.99943,0,0,0,1-1V61A4.004,4.004,0,0,0,60,57Z" fill="#4294ff"/><circle cx="57" cy="5" r="5" fill="#4294ff"/><path d="M60,11H54a4.004,4.004,0,0,0-4,4v2a.99943.99943,0,0,0,1,1H63a.99943.99943,0,0,0,1-1V15A4.004,4.004,0,0,0,60,11Z" fill="#4294ff"/><path d="M49,33H35a1,1,0,0,1,0-2H49a1,1,0,0,1,0,2Z" fill="#376cfb"/><path d="M29,33H15a1,1,0,0,1,0-2H29a1,1,0,0,1,0,2Z" fill="#376cfb"/><path d="M50,10H35a1,1,0,0,1,0-2H50a1,1,0,0,1,0,2Z" fill="#376cfb"/><path d="M50,56H35a1,1,0,0,1,0-2H50a1,1,0,0,1,0,2Z" fill="#376cfb"/><path d="M32,53a.99974.99974,0,0,1-1-1V35a1,1,0,0,1,2,0V52A.99974.99974,0,0,1,32,53Z" fill="#376cfb"/><path d="M32,30a.99974.99974,0,0,1-1-1V12a1,1,0,0,1,2,0V29A.99974.99974,0,0,1,32,30Z" fill="#376cfb"/><circle cx="32" cy="32" r="4" fill="#4294ff"/><circle cx="32" cy="55" r="4" fill="#4294ff"/><circle cx="32" cy="9" r="4" fill="#4294ff"/></g></svg>