<svg xmlns="http://www.w3.org/2000/svg" viewBox="0 0 64 64"><title>Artboard-3</title><g id="Briefcase"><path d="M41,4H23a6.00475,6.00475,0,0,0-6,6v7a1.003,1.003,0,0,0,1,1H46a1.003,1.003,0,0,0,1-1V10A6.00475,6.00475,0,0,0,41,4ZM24,16V11H40v5Z" fill="#4294ff"/><path d="M59,35H5a1,1,0,0,0-1,1V57a3.00328,3.00328,0,0,0,3,3H57a3.00328,3.00328,0,0,0,3-3V36A.99974.99974,0,0,0,59,35Z" fill="#d0dbf7"/><path d="M61,16H3a3.00328,3.00328,0,0,0-3,3V32a5.00588,5.00588,0,0,0,5,5H59a5.00588,5.00588,0,0,0,5-5V19A3.00328,3.00328,0,0,0,61,16Z" fill="#e6ecff"/><rect x="27" y="32" width="10" height="10" rx="1" ry="1" fill="#4294ff"/><rect x="10" y="16" width="6" height="44" fill="#4294ff"/><rect x="48" y="16" width="6" height="44" fill="#4294ff"/><rect x="10" y="37" width="6" height="23" fill="#376cfb"/><rect x="48" y="37" width="6" height="23" fill="#376cfb"/><path d="M44,24H20a1,1,0,0,1,0-2H44a1,1,0,0,1,0,2Z" fill="#4294ff"/><path d="M23,25a1,1,0,0,1-1-1V22a1,1,0,0,1,2,0v2A1,1,0,0,1,23,25Z" fill="#376cfb"/></g></svg>