<svg xmlns="http://www.w3.org/2000/svg" viewBox="0 0 64 64"><title>Artboard-32</title><g id="Clipboard"><path d="M49,10H45a.99974.99974,0,0,0-1,1v5H20V11a.99974.99974,0,0,0-1-1H15a5.00588,5.00588,0,0,0-5,5V58a5.00588,5.00588,0,0,0,5,5H49a5.00588,5.00588,0,0,0,5-5V15A5.00588,5.00588,0,0,0,49,10Z" fill="#376cfb"/><path d="M49,14H45a1,1,0,0,0-1,1v1H20V15a1,1,0,0,0-1-1H15a1,1,0,0,0-1,1V58a1,1,0,0,0,1,1H41l8.99982-9L50,15A1,1,0,0,0,49,14Z" fill="#e6ecff"/><path d="M42,50a1,1,0,0,0-1,1v8l9-9Z" fill="#d0dbf7"/><rect x="22" y="25" width="20" height="15" rx="3" ry="3" fill="#4294ff"/><path d="M36,27H28a.99974.99974,0,0,1-1-1V23a2.00229,2.00229,0,0,1,2-2h6a2.00229,2.00229,0,0,1,2,2v3A.99974.99974,0,0,1,36,27Zm-7-2h6V23H29Z" fill="#2946ed"/><path d="M42,28a3.00328,3.00328,0,0,0-3-3H25a3.00328,3.00328,0,0,0-3,3v1.72009l9.68359,3.22815a.993.993,0,0,0,.63282,0L42,29.72052Z" fill="#376cfb"/><path d="M32,35a.99974.99974,0,0,1-1-1V31a1,1,0,0,1,2,0v3A.99974.99974,0,0,1,32,35Z" fill="#2946ed"/><path d="M44,44H20a1,1,0,0,1,0-2H44a1,1,0,0,1,0,2Z" fill="#4294ff"/><path d="M44,48H20a1,1,0,0,1,0-2H44a1,1,0,0,1,0,2Z" fill="#4294ff"/><path d="M37,52H20a1,1,0,0,1,0-2H37a1,1,0,0,1,0,2Z" fill="#4294ff"/><path d="M37,56H20a1,1,0,0,1,0-2H37a1,1,0,0,1,0,2Z" fill="#4294ff"/><path d="M45,8H39.938A8.00083,8.00083,0,0,0,24.062,8H19a.99974.99974,0,0,0-1,1v8a.99974.99974,0,0,0,1,1H45a.99974.99974,0,0,0,1-1V9A.99974.99974,0,0,0,45,8Z" fill="#4294ff"/><circle cx="32" cy="9" r="4" fill="#376cfb"/></g></svg>