<svg xmlns="http://www.w3.org/2000/svg" viewBox="0 0 64 64"><title>Artboard-30</title><g id="Calendar"><path d="M51,7H5a5.00588,5.00588,0,0,0-5,5V48a5.00588,5.00588,0,0,0,5,5H55a.99943.99943,0,0,0,1-1V12A5.00588,5.00588,0,0,0,51,7Z" fill="#e6ecff"/><rect x="40" y="43" width="24" height="18" rx="3" ry="3" fill="#4294ff"/><path d="M55,36H49a3.99887,3.99887,0,0,0-4,4v4a1.003,1.003,0,0,0,1,1H58a1.003,1.003,0,0,0,1-1V40A3.99887,3.99887,0,0,0,55,36Zm-5,7V41h4v2Z" fill="#2946ed"/><path d="M61,43H43a3.00328,3.00328,0,0,0-3,3v3.764l9.7373,2.651A.99572.99572,0,0,0,50,52.4502h4a.99572.99572,0,0,0,.2627-.03516L64,49.76447V46A3.00328,3.00328,0,0,0,61,43Z" fill="#376cfb"/><rect x="49" y="49" width="6" height="6" rx="1" ry="1" fill="#2946ed"/><path d="M51,7H5a5,5,0,0,0-5,5v5H56V12A5,5,0,0,0,51,7Z" fill="#4294ff"/><rect x="4" y="31" width="8" height="8" rx="1" ry="1" fill="#4294ff"/><rect x="14" y="31" width="8" height="8" rx="1" ry="1" fill="#4294ff"/><rect x="24" y="31" width="8" height="8" rx="1" ry="1" fill="#4294ff"/><rect x="34" y="31" width="8" height="8" rx="1" ry="1" fill="#4294ff"/><rect x="4" y="41" width="8" height="8" rx="1" ry="1" fill="#4294ff"/><rect x="14" y="41" width="8" height="8" rx="1" ry="1" fill="#4294ff"/><rect x="24" y="41" width="8" height="8" rx="1" ry="1" fill="#4294ff"/><rect x="44" y="21" width="8" height="8" rx="1" ry="1" fill="#4294ff"/><path d="M11.707,21.293a.99962.99962,0,0,0-1.41406,0L8,23.58594,5.707,21.293A.99989.99989,0,0,0,4.293,22.707L6.58594,25,4.293,27.293A.99989.99989,0,1,0,5.707,28.707L8,26.41406l2.293,2.293A.99989.99989,0,0,0,11.707,27.293L9.41406,25l2.293-2.293A.99962.99962,0,0,0,11.707,21.293Z" fill="#4294ff"/><path d="M21.707,21.293a.99962.99962,0,0,0-1.41406,0L18,23.58594l-2.293-2.293A.99989.99989,0,0,0,14.293,22.707L16.58594,25l-2.293,2.293A.99989.99989,0,1,0,15.707,28.707L18,26.41406l2.293,2.293A.99989.99989,0,0,0,21.707,27.293L19.41406,25l2.293-2.293A.99962.99962,0,0,0,21.707,21.293Z" fill="#4294ff"/><path d="M31.707,21.293a.99962.99962,0,0,0-1.41406,0L28,23.58594l-2.293-2.293A.99989.99989,0,0,0,24.293,22.707L26.58594,25l-2.293,2.293A.99989.99989,0,1,0,25.707,28.707L28,26.41406l2.293,2.293A.99989.99989,0,0,0,31.707,27.293L29.41406,25l2.293-2.293A.99962.99962,0,0,0,31.707,21.293Z" fill="#4294ff"/><path d="M41.707,21.293a.99962.99962,0,0,0-1.41406,0L38,23.58594l-2.293-2.293A.99989.99989,0,0,0,34.293,22.707L36.58594,25l-2.293,2.293A.99989.99989,0,1,0,35.707,28.707L38,26.41406l2.293,2.293A.99989.99989,0,1,0,41.707,27.293L39.41406,25l2.293-2.293A.99962.99962,0,0,0,41.707,21.293Z" fill="#4294ff"/><path d="M28,14a.99943.99943,0,0,1-1-1V4a1,1,0,0,1,2,0v9A.99943.99943,0,0,1,28,14Z" fill="#376cfb"/><path d="M35,14a.99943.99943,0,0,1-1-1V4a1,1,0,0,1,2,0v9A.99943.99943,0,0,1,35,14Z" fill="#376cfb"/><path d="M42,14a.99943.99943,0,0,1-1-1V4a1,1,0,0,1,2,0v9A.99943.99943,0,0,1,42,14Z" fill="#376cfb"/><path d="M49,14a.99943.99943,0,0,1-1-1V4a1,1,0,0,1,2,0v9A.99943.99943,0,0,1,49,14Z" fill="#376cfb"/><path d="M21,14a.99943.99943,0,0,1-1-1V4a1,1,0,0,1,2,0v9A.99943.99943,0,0,1,21,14Z" fill="#376cfb"/><path d="M14,14a.99943.99943,0,0,1-1-1V4a1,1,0,0,1,2,0v9A.99943.99943,0,0,1,14,14Z" fill="#376cfb"/><path d="M7,14a.99943.99943,0,0,1-1-1V4A1,1,0,0,1,8,4v9A.99943.99943,0,0,1,7,14Z" fill="#376cfb"/></g></svg>