<svg xmlns="http://www.w3.org/2000/svg" viewBox="0 0 64 64"><title>Artboard-29</title><g id="Interview_Hierarchy" data-name="Interview Hierarchy"><rect x="19" y="7" width="26" height="18" rx="3" ry="3" fill="#4294ff"/><path d="M36,0H28a3.99887,3.99887,0,0,0-4,4V8a1.003,1.003,0,0,0,1,1H39a1.003,1.003,0,0,0,1-1V4A3.99887,3.99887,0,0,0,36,0ZM29,7V5h6V7Z" fill="#2946ed"/><path d="M42,7H22a3.00328,3.00328,0,0,0-3,3v3.78534l10.76172,2.63654A1.03253,1.03253,0,0,0,30,16.4502h4a1.03253,1.03253,0,0,0,.23828-.02832L45,13.785V10A3.00328,3.00328,0,0,0,42,7Z" fill="#376cfb"/><rect x="29" y="13" width="6" height="6" rx="1" ry="1" fill="#2946ed"/><circle cx="9" cy="49" r="6" fill="#4294ff"/><path d="M14,56H4a4.004,4.004,0,0,0-4,4v3a.99943.99943,0,0,0,1,1H17a.99943.99943,0,0,0,1-1V60A4.004,4.004,0,0,0,14,56Z" fill="#4294ff"/><circle cx="32" cy="49" r="6" fill="#4294ff"/><path d="M37,56H27a4.004,4.004,0,0,0-4,4v3a.99943.99943,0,0,0,1,1H40a.99943.99943,0,0,0,1-1V60A4.004,4.004,0,0,0,37,56Z" fill="#4294ff"/><circle cx="55" cy="49" r="6" fill="#4294ff"/><path d="M60,56H50a4.004,4.004,0,0,0-4,4v3a.99943.99943,0,0,0,1,1H63a.99943.99943,0,0,0,1-1V60A4.004,4.004,0,0,0,60,56Z" fill="#4294ff"/><path d="M9,42a.99943.99943,0,0,0,1-1V38a3.00328,3.00328,0,0,1,3-3H31v6a1,1,0,0,0,2,0V35H51a3.00328,3.00328,0,0,1,3,3v3a1,1,0,0,0,2,0V38a5.00588,5.00588,0,0,0-5-5H33V27a1,1,0,0,0-2,0v6H13a5.00588,5.00588,0,0,0-5,5v3A.99943.99943,0,0,0,9,42Z" fill="#376cfb"/></g></svg>