<svg xmlns="http://www.w3.org/2000/svg" viewBox="0 0 64 64"><title>Artboard-1</title><g id="ID_Card" data-name="ID Card"><path d="M48,12H38a1,1,0,0,0-1,1v5H27V13a1,1,0,0,0-1-1H16a4.00458,4.00458,0,0,0-4,4V60a4.00458,4.00458,0,0,0,4,4H48a4.00458,4.00458,0,0,0,4-4V16A4.00458,4.00458,0,0,0,48,12Z" fill="#4294ff"/><path d="M35,23H28a2.01467,2.01467,0,0,0-2,2,2.996,2.996,0,0,0-3,3v6.27A1.99427,1.99427,0,0,1,24,34h2V31s3,0,4-2c0,0,1.33,3,8,3v2h2a1.99427,1.99427,0,0,1,1,.27V29A6.00475,6.00475,0,0,0,35,23Z" fill="#494a59"/><path d="M40,33H37v4a5.47014,5.47014,0,0,1-.09,1H40a2.00591,2.00591,0,0,0,2-2V35A2.00591,2.00591,0,0,0,40,33Z" fill="#f2c7c7"/><path d="M27,37V33H24a2.00591,2.00591,0,0,0-2,2v1a2.00591,2.00591,0,0,0,2,2h3.09A5.47014,5.47014,0,0,1,27,37Z" fill="#f2c7c7"/><path d="M47,48H17a1,1,0,0,1,0-2H47a1,1,0,0,1,0,2Z" fill="#376cfb"/><path d="M36,52H17a1,1,0,0,1,0-2H36a1,1,0,0,1,0,2Z" fill="#376cfb"/><path d="M30,56H17a1,1,0,0,1,0-2H30a1,1,0,0,1,0,2Z" fill="#376cfb"/><path d="M41,60H17a1,1,0,0,1,0-2H41a1,1,0,0,1,0,2Z" fill="#376cfb"/><path d="M32,0a7.00787,7.00787,0,0,0-7,7V19a1,1,0,0,0,1,1H38a1,1,0,0,0,1-1V7A7.00787,7.00787,0,0,0,32,0Z" fill="#376cfb"/><circle cx="32" cy="7" r="3" fill="#2946ed"/><path d="M30,28c-1,2-4,2-4,2v7a6,6,0,0,0,12,0V31C31.33331,31,30,28,30,28Z" fill="#ffe1e1"/></g></svg>