<svg xmlns="http://www.w3.org/2000/svg" viewBox="0 0 64 64"><title>Artboard-2</title><g id="Time_Work" data-name="Time Work"><path d="M35,3H17a5.00181,5.00181,0,0,0-5,5v6a1.003,1.003,0,0,0,1,1H39a1.003,1.003,0,0,0,1-1V8A5.00181,5.00181,0,0,0,35,3ZM18,13V9H34v4Z" fill="#4294ff"/><path d="M47,13H5a5.00588,5.00588,0,0,0-5,5V44a5.00588,5.00588,0,0,0,5,5H51a1,1,0,0,0,1-1V18A5.00588,5.00588,0,0,0,47,13Z" fill="#d0dbf7"/><path d="M52,18a5.00588,5.00588,0,0,0-5-5H5a5.00588,5.00588,0,0,0-5,5v5.73022l22.69531,7.26246A1.008,1.008,0,0,0,23,31.04h6a1.008,1.008,0,0,0,.30469-.04736L52,23.73Z" fill="#e6ecff"/><circle cx="51" cy="48" r="13" fill="#4294ff"/><circle cx="51" cy="48" r="10" fill="#376cfb"/><path d="M53,49H51a1,1,0,0,1-1-1V46a1,1,0,0,1,2,0v1h1a1,1,0,0,1,0,2Z" fill="#2946ed"/><path d="M51,44a1,1,0,0,1-1-1V42a1,1,0,0,1,2,0v1A1,1,0,0,1,51,44Z" fill="#2946ed"/><path d="M46,49H45a1,1,0,0,1,0-2h1a1,1,0,0,1,0,2Z" fill="#2946ed"/><path d="M51,55a1,1,0,0,1-1-1V53a1,1,0,0,1,2,0v1A1,1,0,0,1,51,55Z" fill="#2946ed"/><path d="M57,49H56a1,1,0,0,1,0-2h1a1,1,0,0,1,0,2Z" fill="#2946ed"/><rect x="22" y="26" width="8" height="9" rx="1" ry="1" fill="#4294ff"/></g></svg>