<svg xmlns="http://www.w3.org/2000/svg" viewBox="0 0 64 64"><title>Artboard-35</title><g id="Qualification"><path d="M20,35V48h2a3,3,0,0,0,3-3V35Z" fill="#f2c7c7"/><path d="M3,45a3,3,0,0,0,3,3H8V35H3Z" fill="#f2c7c7"/><path d="M22,5v7.5a2.503,2.503,0,0,0-1.5-.5H19V10C11.5,10,9,8,9,8v4H7.5a2.503,2.503,0,0,0-1.5.5V6A2.996,2.996,0,0,1,9,3h1a3.00452,3.00452,0,0,1,3-3h4A5.00181,5.00181,0,0,1,22,5Z" fill="#494a59"/><path d="M20.5,11H18v2a4.94123,4.94123,0,0,1-1,3h3.5a2.5,2.5,0,0,0,0-5Z" fill="#f2c7c7"/><path d="M10,11H7.5a2.5,2.5,0,1,0,0,5H11a4.94123,4.94123,0,0,1-1-3Z" fill="#f2c7c7"/><path d="M17,16v5l-3,3-3-3V16a5,5,0,0,0,6,0Z" fill="#f2c7c7"/><path d="M25.06,24.83,22,23l-5-3-3,3-3-3L6,23,2.94,24.83A4.024,4.024,0,0,0,1,28.26V35a1,1,0,0,0,1,1H7v6H21V36h5a1,1,0,0,0,1-1V28.26A4.024,4.024,0,0,0,25.06,24.83Z" fill="#e6ecff"/><path d="M19,9v4a5,5,0,0,1-5,5h0a5,5,0,0,1-5-5V7S11.5,9,19,9Z" fill="#ffe1e1"/><polygon points="22 23 17 20 14 23 19 26 22 23" fill="#d0dbf7"/><polygon points="6 23 11 20 14 23 9 26 6 23" fill="#d0dbf7"/><rect x="7" y="41" width="14" height="22" fill="#4294ff"/><path d="M14,64a.99943.99943,0,0,1-1-1V47a1,1,0,0,1,2,0V63A.99943.99943,0,0,1,14,64Z" fill="#376cfb"/><polygon points="17.17 35.08 14 37 10.83 35.08 12 28 11.11 24.73 14 23 16.89 24.73 16 28 17.17 35.08" fill="#4294ff"/><polygon points="11.11 24.73 12 28 16 28 16.89 24.73 14 23 11.11 24.73" fill="#376cfb"/><path d="M46,16H31a1,1,0,0,0,0,2H46a1,1,0,0,0,0-2Z" fill="#4294ff"/><path d="M46,32H31a1,1,0,0,0,0,2H46a1,1,0,0,0,0-2Z" fill="#4294ff"/><path d="M46,47H31a1,1,0,0,0,0,2H46a1,1,0,0,0,0-2Z" fill="#4294ff"/><path d="M53.293,19.707a.99963.99963,0,0,0,1.41406,0l6-6A.99989.99989,0,1,0,59.293,12.293L54,17.58594l-2.293-2.293A.99989.99989,0,0,0,50.293,16.707Z" fill="#4294ff"/><path d="M59.293,28.293,54,33.58594l-2.293-2.293A.99989.99989,0,1,0,50.293,32.707l3,3a.99963.99963,0,0,0,1.41406,0l6-6A.99989.99989,0,1,0,59.293,28.293Z" fill="#4294ff"/><path d="M59.707,43.293a.99962.99962,0,0,0-1.41406,0L55,46.58594l-3.293-3.293A.99989.99989,0,0,0,50.293,44.707L53.58594,48l-3.293,3.293A.99989.99989,0,1,0,51.707,52.707L55,49.41406l3.293,3.293A.99989.99989,0,0,0,59.707,51.293L56.41406,48l3.293-3.293A.99962.99962,0,0,0,59.707,43.293Z" fill="#4294ff"/><path d="M63,64H1a1,1,0,0,1,0-2H63a1,1,0,0,1,0,2Z" fill="#2946ed"/><path d="M23,31v5H21V31a1,1,0,0,1,2,0Z" fill="#d0dbf7"/><path d="M7,31v5H5V31a1,1,0,0,1,2,0Z" fill="#d0dbf7"/></g></svg>