<svg xmlns="http://www.w3.org/2000/svg" viewBox="0 0 64 64"><title>Artboard-8</title><g id="Letter_Of_Consent" data-name="Letter Of Consent"><path d="M13.40967,24.08789a1.001,1.001,0,0,0-1.07422.16455l-9,8a1,1,0,0,0,.19238,1.62891l9,4.81982A.99993.99993,0,0,0,14,37.81982V25A.99963.99963,0,0,0,13.40967,24.08789Z" fill="#2946ed"/><path d="M60.66406,32.25244l-9-8A1.00014,1.00014,0,0,0,50,25V37.81982a.99937.99937,0,0,0,1.47168.88135l9-4.81982a.9994.9994,0,0,0,.19238-1.62891Z" fill="#2946ed"/><path d="M51.99982,10,43,1H13a1,1,0,0,0-1,1V37.81982a.99973.99973,0,0,0,.52758.88122L31.52783,48.88135a.99883.99883,0,0,0,.94434,0L51.47266,38.70117A.99926.99926,0,0,0,52,37.82036Z" fill="#e6ecff"/><path d="M40,10H33a1,1,0,0,1,0-2h7a1,1,0,0,1,0,2Z" fill="#4294ff"/><path d="M46,14H33a1,1,0,0,1,0-2H46a1,1,0,0,1,0,2Z" fill="#4294ff"/><path d="M46,23H33a1,1,0,0,1,0-2H46a1,1,0,0,1,0,2Z" fill="#4294ff"/><path d="M46,27H33a1,1,0,0,1,0-2H46a1,1,0,0,1,0,2Z" fill="#4294ff"/><path d="M46,36H33a1,1,0,0,1,0-2H46a1,1,0,0,1,0,2Z" fill="#4294ff"/><path d="M41,40H33a1,1,0,0,1,0-2h8a1,1,0,0,1,0,2Z" fill="#4294ff"/><rect x="17" y="6" width="10" height="10" rx="1" ry="1" fill="#4294ff"/><rect x="17" y="19" width="10" height="10" rx="1" ry="1" fill="#4294ff"/><path d="M26,32H18a1,1,0,0,0-1,1v7.5a1.00206,1.00206,0,0,0,1.063.998.99922.99922,0,0,0,.86719.502H26a1,1,0,0,0,1-1V33A1,1,0,0,0,26,32Z" fill="#4294ff"/><path d="M60.51367,32.14209a1.00067,1.00067,0,0,0-.98633-.02344L32,46.86572,4.47217,32.11865A.99993.99993,0,0,0,3,33V62a1,1,0,0,0,1,1H60a.99974.99974,0,0,0,1-1V33A.9998.9998,0,0,0,60.51367,32.14209Z" fill="#376cfb"/><path d="M3.25665,62.65332A.98594.98594,0,0,0,4,63H60a.98578.98578,0,0,0,.74341-.34656c-5.13684-4.51489-15.28223-13.4317-22.04553-19.37591L32,46.86572,25.30182,43.2774Z" fill="#4294ff"/><path d="M43,1V9a1,1,0,0,0,1,1h8Z" fill="#d0dbf7"/><path d="M23,13a.99676.99676,0,0,1-.707-.293l-2-2A.99989.99989,0,0,1,21.707,9.293L23,10.58594l4.293-4.293A.99989.99989,0,0,1,28.707,7.707l-5,5A.99676.99676,0,0,1,23,13Z" fill="#376cfb"/><path d="M23,26a.99676.99676,0,0,1-.707-.293l-2-2A.99989.99989,0,0,1,21.707,22.293L23,23.58594l4.293-4.293A.99989.99989,0,0,1,28.707,20.707l-5,5A.99676.99676,0,0,1,23,26Z" fill="#376cfb"/><path d="M23,39a.99676.99676,0,0,1-.707-.293l-2-2A.99989.99989,0,0,1,21.707,35.293L23,36.58594l4.293-4.293A.99989.99989,0,0,1,28.707,33.707l-5,5A.99676.99676,0,0,1,23,39Z" fill="#376cfb"/></g></svg>