<svg xmlns="http://www.w3.org/2000/svg" viewBox="0 0 64 64"><title>Artboard-4</title><g id="Search_Worker" data-name="Search Worker"><path d="M61.22168,47.80762,50.57715,37.16309a.99993.99993,0,0,0-1.61914.29736A22.863,22.863,0,0,1,37.46,48.958a1.00016,1.00016,0,0,0-.29687,1.61914L47.80762,61.22168A9.48517,9.48517,0,1,0,61.22168,47.80762Z" fill="#376cfb"/><circle cx="28" cy="28" r="25" fill="#4294ff"/><circle cx="28" cy="28" r="21" fill="#376cfb"/><rect x="25" width="6" height="12" rx="1" ry="1" fill="#2946ed"/><rect y="25" width="12" height="6" rx="1" ry="1" fill="#2946ed"/><rect x="25" y="44" width="6" height="12" rx="1" ry="1" fill="#2946ed"/><rect x="44" y="25" width="12" height="6" rx="1" ry="1" fill="#2946ed"/><path d="M61.22168,61.22168a9.496,9.496,0,0,0,0-13.41406L60,46.58594,46.58594,60l1.22168,1.22168a9.48474,9.48474,0,0,0,13.41406,0Z" fill="#2946ed"/><path d="M31,18H24a2.01467,2.01467,0,0,0-2,2,2.996,2.996,0,0,0-3,3v6.27A1.99427,1.99427,0,0,1,20,29h2V26s3,0,4-2c0,0,1.33,3,8,3v2h2a1.99427,1.99427,0,0,1,1,.27V24A6.00475,6.00475,0,0,0,31,18Z" fill="#494a59"/><path d="M36,28H33v4a5.47014,5.47014,0,0,1-.09,1H36a2.00591,2.00591,0,0,0,2-2V30A2.00591,2.00591,0,0,0,36,28Z" fill="#f2c7c7"/><path d="M23,32V28H20a2.00591,2.00591,0,0,0-2,2v1a2.00591,2.00591,0,0,0,2,2h3.09A5.47014,5.47014,0,0,1,23,32Z" fill="#f2c7c7"/><path d="M26,23c-1,2-4,2-4,2v7a6,6,0,0,0,12,0V26C27.33331,26,26,23,26,23Z" fill="#ffe1e1"/></g></svg>