<svg xmlns="http://www.w3.org/2000/svg" viewBox="0 0 64 64"><title>Artboard-33</title><g id="Dossier"><rect x="1" y="1" width="46" height="62" rx="1" ry="1" fill="#e6ecff"/><path d="M47,2a.99943.99943,0,0,0-1-1H2A.99974.99974,0,0,0,1,2v.2652L9.13184,16.49609A.99959.99959,0,0,0,10,17H38a1.00018,1.00018,0,0,0,.86816-.50391L47,2.26538Z" fill="#d0dbf7"/><circle cx="24" cy="9" r="4" fill="#4294ff"/><circle cx="24" cy="23" r="4" fill="#4294ff"/><path d="M24,24a.99974.99974,0,0,1-1-1V9a1,1,0,0,1,2,0V23A.99974.99974,0,0,1,24,24Z" fill="#376cfb"/><rect x="5" y="51" width="12" height="8" rx="1" ry="1" fill="#4294ff"/><path d="M54,36H46a3.99887,3.99887,0,0,0-4,4v4a1.003,1.003,0,0,0,1,1H57a1.003,1.003,0,0,0,1-1V40A3.99887,3.99887,0,0,0,54,36Zm-7,7V41h6v2Z" fill="#2946ed"/><rect x="37" y="43" width="26" height="20" rx="3" ry="3" fill="#4294ff"/><path d="M63,46a3,3,0,0,0-3-3H40a3,3,0,0,0-3,3v3.71271l10.67383,3.6828A.99861.99861,0,0,0,48,53.4502h4a.99861.99861,0,0,0,.32617-.05469L63,49.71307Z" fill="#376cfb"/><rect x="47" y="50" width="6" height="7" rx="1" ry="1" fill="#2946ed"/></g></svg>