<svg xmlns="http://www.w3.org/2000/svg" viewBox="0 0 64 64"><title>Artboard-13</title><g id="Monitor"><path d="M58,9H6a5.00588,5.00588,0,0,0-5,5V46a1,1,0,0,0,1,1H62a.99974.99974,0,0,0,1-1V14A5.00588,5.00588,0,0,0,58,9Z" fill="#4294ff"/><rect x="5" y="13" width="54" height="28" rx="1" ry="1" fill="#376cfb"/><path d="M36,18.46V23l-4,4-4-4V18.46a5.96469,5.96469,0,0,0,8,0Z" fill="#f2c7c7"/><path d="M45,61a5.00588,5.00588,0,0,1-5-5V52a.99974.99974,0,0,0-1-1H25a1,1,0,0,0-1,1v4a5.00588,5.00588,0,0,1-5,5,1,1,0,0,0,0,2H45a1,1,0,0,0,0-2Z" fill="#2946ed"/><path d="M35.08,1H29a3.00452,3.00452,0,0,0-3,3H25a2.996,2.996,0,0,0-3,3v6.27A1.99484,1.99484,0,0,1,23,13h3V9s3,2,12,2v2h3a1.99484,1.99484,0,0,1,1,.27V7.92A6.92229,6.92229,0,0,0,35.08,1Z" fill="#494a59"/><path d="M41,12H37v3a5.80321,5.80321,0,0,1-.35,2H41a2.00591,2.00591,0,0,0,2-2V14A2.00587,2.00587,0,0,0,41,12Z" fill="#f2c7c7"/><path d="M27,15V12H23a2.00587,2.00587,0,0,0-2,2v1a2.00591,2.00591,0,0,0,2,2h4.35A5.80321,5.80321,0,0,1,27,15Z" fill="#f2c7c7"/><path d="M48,29.85V41H16V29.85a2.99917,2.99917,0,0,1,1.66-2.68L22,25l6-3,4,4,4-4,6,3,4.34,2.17A2.99917,2.99917,0,0,1,48,29.85Z" fill="#e6ecff"/><polygon points="42 25 36 22 32 26 38 29 42 25" fill="#d0dbf7"/><polygon points="22 25 28 22 32 26 26 29 22 25" fill="#d0dbf7"/><polygon points="27.43 41 30 32 28 28 32 26 36 28 34 32 36.57 41 27.43 41" fill="#4f5460"/><polygon points="28 28 30 32 34 32 36 28 32 26 28 28" fill="#3c3f49"/><path d="M44,32v9H42V32a1,1,0,0,1,2,0Z" fill="#d0dbf7"/><path d="M22,32v9H20V32a1,1,0,0,1,2,0Z" fill="#d0dbf7"/><path d="M63,45H1v3a5,5,0,0,0,5,5H58a5,5,0,0,0,5-5Z" fill="#376cfb"/><path d="M35,50H29a1,1,0,0,1,0-2h6a1,1,0,0,1,0,2Z" fill="#2946ed"/><path d="M26,8v7a6,6,0,0,0,12,0V10C29,10,26,8,26,8Z" fill="#ffe1e1"/></g></svg>