<svg xmlns="http://www.w3.org/2000/svg" viewBox="0 0 64 64"><title>Artboard-36</title><g id="reward_employee" data-name="reward employee"><path d="M35.08,20.08966H29a3.00454,3.00454,0,0,0-3,3H25a3.00238,3.00238,0,0,0-3,3v6.28a1.90544,1.90544,0,0,1,1-.28h3v-4s3,2,12,2v2h3a1.90544,1.90544,0,0,1,1,.28v-5.36A6.92229,6.92229,0,0,0,35.08,20.08966Z" fill="#494a59"/><path d="M41,31.08966H37v3a5.80321,5.80321,0,0,1-.35,2H41a1.99946,1.99946,0,0,0,2-2v-1A2.00591,2.00591,0,0,0,41,31.08966Z" fill="#f2c7c7"/><path d="M27,34.08966v-3H23a2.00591,2.00591,0,0,0-2,2v1a1.99946,1.99946,0,0,0,2,2h4.35A5.80321,5.80321,0,0,1,27,34.08966Z" fill="#f2c7c7"/><path d="M32,39.08966a5.97075,5.97075,0,0,1-4-1.53v4.53l4,4,4-4v-4.53A5.97075,5.97075,0,0,1,32,39.08966Z" fill="#f2c7c7"/><path d="M45.98,46.93964l-4.98-2.85-5-3-4,4-4-4-5,3-4.98,2.85a3.99986,3.99986,0,0,0-2.02,3.48v10.67a1,1,0,0,0,1,1H47a1,1,0,0,0,1-1v-10.67A3.99986,3.99986,0,0,0,45.98,46.93964Z" fill="#e6ecff"/><path d="M26,27.09369v7a6,6,0,1,0,12,0v-5C29,29.09369,26,27.09369,26,27.09369Z" fill="#ffe1e1"/><polygon points="41 44.094 36 41.094 32 45.094 37 48.094 41 44.094" fill="#d0dbf7"/><polygon points="23 44.094 28 41.094 32 45.094 27 48.094 23 44.094" fill="#d0dbf7"/><polygon points="28 62.09 30 51.09 28.15 47.4 32 45.09 35.85 47.4 34 51.09 36 62.09 28 62.09" fill="#4294ff"/><polygon points="32 45.09 28.15 47.4 30 51.09 29.999 51.094 34.001 51.094 34 51.09 35.85 47.4 32 45.09" fill="#376cfb"/><path d="M43,52.08966v9.89H41v-9.89a1,1,0,0,1,2,0Z" fill="#d0dbf7"/><path d="M23,52.08966v9.89H21v-9.89a1,1,0,0,1,2,0Z" fill="#d0dbf7"/><path d="M37.14355,5.509,34.209,5.08221,32.897,2.423a1.041,1.041,0,0,0-1.79394,0L29.791,5.08221,26.85645,5.509a.99941.99941,0,0,0-.55469,1.70508l2.12353,2.07031-.50146,2.92285A1.00012,1.00012,0,0,0,29.375,13.26093L32,11.881l2.625,1.37989a1.00012,1.00012,0,0,0,1.45117-1.05372l-.50146-2.92285,2.12353-2.07031A.99941.99941,0,0,0,37.14355,5.509Z" fill="#4294ff"/><path d="M48.09033,19.37616a1.00081,1.00081,0,0,0,.98584-1.16895l-.50146-2.92285,2.12353-2.07031a.99941.99941,0,0,0-.55469-1.70508L47.209,11.08221,45.897,8.423a1.041,1.041,0,0,0-1.79394,0l-1.312,2.65918-2.93457.42676a.99941.99941,0,0,0-.55469,1.70508l2.12353,2.07031-.50146,2.92285A1.00012,1.00012,0,0,0,42.375,19.26093L45,17.881l2.625,1.37989A.99748.99748,0,0,0,48.09033,19.37616Z" fill="#4294ff"/><path d="M58.95117,23.18866a1.00019,1.00019,0,0,0-.80762-.67969L55.209,22.08221,53.897,19.423a1.041,1.041,0,0,0-1.79394,0l-1.312,2.65918-2.93457.42676a.99941.99941,0,0,0-.55469,1.70508l2.12353,2.07031-.50146,2.92285A1.00012,1.00012,0,0,0,50.375,30.26093L53,28.881l2.625,1.37989a1.00012,1.00012,0,0,0,1.45117-1.05372l-.50146-2.92285,2.12353-2.07031A1.00038,1.00038,0,0,0,58.95117,23.18866Z" fill="#4294ff"/><path d="M16.14355,22.509,13.209,22.08221,11.897,19.423a1.041,1.041,0,0,0-1.79394,0L8.791,22.08221,5.85645,22.509a.99941.99941,0,0,0-.55469,1.70508l2.12353,2.07031-.50146,2.92285A1.00012,1.00012,0,0,0,8.375,30.26093L11,28.881l2.625,1.37989a1.00012,1.00012,0,0,0,1.45117-1.05372l-.50146-2.92285,2.12353-2.07031a.99941.99941,0,0,0-.55469-1.70508Z" fill="#4294ff"/><path d="M24.14355,11.509,21.209,11.08221,19.897,8.423a1.041,1.041,0,0,0-1.79394,0l-1.312,2.65918-2.93457.42676a.99941.99941,0,0,0-.55469,1.70508l2.12353,2.07031-.50146,2.92285A1.00012,1.00012,0,0,0,16.375,19.26093L19,17.881l2.625,1.37989a1.00012,1.00012,0,0,0,1.45117-1.05372l-.50146-2.92285,2.12353-2.07031a.99941.99941,0,0,0-.55469-1.70508Z" fill="#4294ff"/></g></svg>