<svg xmlns="http://www.w3.org/2000/svg" viewBox="0 0 64 64"><title>Artboard-14</title><g id="Versatile"><path d="M35.08,11H29a3.00452,3.00452,0,0,0-3,3H25a2.996,2.996,0,0,0-3,3v6.27A1.99484,1.99484,0,0,1,23,23h3V19s3,2,12,2v2h3a1.99484,1.99484,0,0,1,1,.27V17.92A6.92229,6.92229,0,0,0,35.08,11Z" fill="#494a59"/><path d="M41,22H37v3a5.80321,5.80321,0,0,1-.35,2H41a2.00591,2.00591,0,0,0,2-2V24A2.00587,2.00587,0,0,0,41,22Z" fill="#f2c7c7"/><path d="M27,25V22H23a2.00587,2.00587,0,0,0-2,2v1a2.00591,2.00591,0,0,0,2,2h4.35A5.80321,5.80321,0,0,1,27,25Z" fill="#f2c7c7"/><path d="M36,28.46V33l-4,4-4-4V28.46a5.96469,5.96469,0,0,0,8,0Z" fill="#f2c7c7"/><path d="M46.34,37.17,42,35l-6-3-4,4-4-4-6,3-4.34,2.17A2.99917,2.99917,0,0,0,16,39.85V46a1,1,0,0,0,1,1H47a1,1,0,0,0,1-1V39.85A2.99917,2.99917,0,0,0,46.34,37.17Z" fill="#e6ecff"/><path d="M26,18v7a6,6,0,0,0,12,0V20C29,20,26,18,26,18Z" fill="#ffe1e1"/><polygon points="42 35 36 32 32 36 38 39 42 35" fill="#d0dbf7"/><polygon points="22 35 28 32 32 36 26 39 22 35" fill="#d0dbf7"/><polygon points="34 42 36 47 28 47 30 42 28 38 32 36 36 38 34 42" fill="#4294ff"/><polygon points="32 36 28 38 30 42 34 42 36 38 32 36" fill="#376cfb"/><path d="M43,42v5H41V42a1,1,0,0,1,2,0Z" fill="#d0dbf7"/><path d="M23,42v5H21V42a1,1,0,0,1,2,0Z" fill="#d0dbf7"/><path d="M59.38281,52.07617a1.00066,1.00066,0,0,0-1.08984.2168L56,54.58594l-5.293-5.293a.99962.99962,0,0,0-1.41406,0l-4,4a.99962.99962,0,0,0,0,1.41406L50.58594,60l-2.293,2.293A.99991.99991,0,0,0,49,64H59a.99974.99974,0,0,0,1-1V53A.99945.99945,0,0,0,59.38281,52.07617Z" fill="#4294ff"/><path d="M59,0H49a.99991.99991,0,0,0-.707,1.707L50.58594,4l-6.293,6.293a.99962.99962,0,0,0,0,1.41406l4,4a.99963.99963,0,0,0,1.41406,0L56,9.41406l2.293,2.293A.99991.99991,0,0,0,60,11V1A.99974.99974,0,0,0,59,0Z" fill="#4294ff"/><path d="M14.707,49.293a.99962.99962,0,0,0-1.41406,0L8,54.58594,5.707,52.293A.99991.99991,0,0,0,4,53V63a.99974.99974,0,0,0,1,1H15a.99991.99991,0,0,0,.707-1.707L13.41406,60l5.293-5.293a.99962.99962,0,0,0,0-1.41406Z" fill="#4294ff"/><path d="M13.41406,4l2.293-2.293A.99991.99991,0,0,0,15,0H5A.99974.99974,0,0,0,4,1V11a.99991.99991,0,0,0,1.707.707L8,9.41406l6.293,6.293a.99963.99963,0,0,0,1.41406,0l4-4a.99962.99962,0,0,0,0-1.41406Z" fill="#4294ff"/></g></svg>