<svg xmlns="http://www.w3.org/2000/svg" viewBox="0 0 64 64"><title>Artboard-22</title><g id="Hand_karyawan" data-name="Hand karyawan"><path d="M35.08,1H29a3.00452,3.00452,0,0,0-3,3H25a2.996,2.996,0,0,0-3,3v6.27A1.99484,1.99484,0,0,1,23,13h3V9s3,2,12,2v2h3a1.99484,1.99484,0,0,1,1,.27V7.92A6.92229,6.92229,0,0,0,35.08,1Z" fill="#494a59"/><path d="M41,12H37v3a5.80321,5.80321,0,0,1-.35,2H41a2.00591,2.00591,0,0,0,2-2V14A2.00587,2.00587,0,0,0,41,12Z" fill="#f2c7c7"/><path d="M27,15V12H23a2.00587,2.00587,0,0,0-2,2v1a2.00591,2.00591,0,0,0,2,2h4.35A5.80321,5.80321,0,0,1,27,15Z" fill="#f2c7c7"/><path d="M36,18.46V23l-4,4-4-4V18.46a5.96469,5.96469,0,0,0,8,0Z" fill="#f2c7c7"/><path d="M46.96,29.37,32,44.21,17.04,29.37a3.00381,3.00381,0,0,1,1.62-2.2L23,25l5-3,4,4,4-4,5,3,4.34,2.17A3.00381,3.00381,0,0,1,46.96,29.37Z" fill="#e6ecff"/><path d="M57.5,9A4.50491,4.50491,0,0,0,53,13.5V31.2168a4.55716,4.55716,0,0,0-4.709,1.05859L35.1709,45.29a.999.999,0,0,0-.2959.71V56a.99974.99974,0,0,0,1,1H52a.99974.99974,0,0,0,1-1V51.41406l7.53564-7.53515A4.968,4.968,0,0,0,62,40.34277V13.5A4.50491,4.50491,0,0,0,57.5,9Z" fill="#ffe1e1"/><path d="M26,8v7a6,6,0,0,0,12,0V10C29,10,26,8,26,8Z" fill="#ffe1e1"/><polygon points="41 25 36 22 32 26 37 29 41 25" fill="#d0dbf7"/><polygon points="23 25 28 22 32 26 27 29 23 25" fill="#d0dbf7"/><polygon points="28.154 28.308 30 32 27.071 39.323 32 44.21 36.929 39.323 34 32 35.846 28.308 32 26 28.154 28.308" fill="#4294ff"/><polygon points="35.846 28.308 32 26 28.154 28.308 30 32 34 32 35.846 28.308" fill="#376cfb"/><path d="M56.12,40.13l-8,7.99a1.002,1.002,0,0,1-1.41,0,.9959.9959,0,0,1,0-1.41l7.99-8a4.54482,4.54482,0,0,0,0-6.42,4.44525,4.44525,0,0,0-1.84-1.11.74051.74051,0,0,1,.14.04V29.14a6.43473,6.43473,0,0,1,3.12,1.73A6.5607,6.5607,0,0,1,56.12,40.13Z" fill="#f2c7c7"/><rect x="33" y="55" width="22" height="7" rx="1" ry="1" fill="#4294ff"/><path d="M6.5,9A4.50491,4.50491,0,0,1,11,13.5V31.2168a4.55716,4.55716,0,0,1,4.709,1.05859L28.8291,45.29a.999.999,0,0,1,.2959.71V56a.99974.99974,0,0,1-1,1H12a.99974.99974,0,0,1-1-1V51.41406L3.46436,43.87891A4.968,4.968,0,0,1,2,40.34277V13.5A4.50491,4.50491,0,0,1,6.5,9Z" fill="#ffe1e1"/><path d="M7.88,40.13l8,7.99a1.002,1.002,0,0,0,1.41,0,.9959.9959,0,0,0,0-1.41l-7.99-8a4.54482,4.54482,0,0,1,0-6.42,4.44525,4.44525,0,0,1,1.84-1.11.74051.74051,0,0,0-.14.04V29.14a6.43473,6.43473,0,0,0-3.12,1.73A6.5607,6.5607,0,0,0,7.88,40.13Z" fill="#f2c7c7"/><rect x="9" y="55" width="22" height="7" rx="1" ry="1" fill="#4294ff"/></g></svg>