<svg xmlns="http://www.w3.org/2000/svg" viewBox="0 0 64 64"><title>Artboard-40</title><g id="Clothing"><path d="M40.33,23.5l-3,2.7L32,21.63,26.67,26.2l-3-2.7L30,18.08V14.7a3.993,3.993,0,0,1,2.86-3.83,3.00058,3.00058,0,0,0,1.86-4.13,2.92519,2.92519,0,0,0-1.99-1.65A2.9978,2.9978,0,0,0,29.25,6.8,1.8917,1.8917,0,0,1,27.55,8h-.27a1.915,1.915,0,0,1-1.75-2.67,7.00643,7.00643,0,0,1,7.96-4.17,6.92852,6.92852,0,0,1,4.99,4.21,7.01078,7.01078,0,0,1-4.47,9.34L34,18.08Z" fill="#4294ff"/><path d="M60.79,32.89,49,27l-7-6L32,30,22,21l-7,6L3.21,32.89A4.02015,4.02015,0,0,0,1,36.47V59a3.99891,3.99891,0,0,0,4,4H59a3.99891,3.99891,0,0,0,4-4V36.47A4.02015,4.02015,0,0,0,60.79,32.89Z" fill="#e6ecff"/><polygon points="23.92 56.4 29 40 27.07 34.22 32 30 36.93 34.22 35 40 40.04 56.27 23.92 56.4" fill="#4294ff"/><polygon points="32 30 27.07 34.22 29 40 35 40 36.93 34.22 32 30" fill="#376cfb"/><path d="M60.79,32.89,49,27s.95,13.94-5.87,22.69A13.8926,13.8926,0,0,1,32,54.95a13.8926,13.8926,0,0,1-11.13-5.26C14.05,40.94,15,27,15,27L3.21,32.89A4.02015,4.02015,0,0,0,1,36.47V59a3.99891,3.99891,0,0,0,4,4H59a3.99891,3.99891,0,0,0,4-4V36.47A4.02015,4.02015,0,0,0,60.79,32.89Z" fill="#4f5460"/><polygon points="15 27 25 36 32 30 22 21 15 27" fill="#d0dbf7"/><polygon points="49 27 39 36 32 30 42 21 49 27" fill="#d0dbf7"/></g></svg>