<svg xmlns="http://www.w3.org/2000/svg" viewBox="0 0 64 64"><title>Artboard-23</title><g id="Awards"><path d="M40.30371,43.33691a1.00591,1.00591,0,0,0-1.11914.374,3.68179,3.68179,0,0,1-4.62208,1.11719,5.72631,5.72631,0,0,0-5.11913-.00293,3.67593,3.67593,0,0,1-4.62793-1.11426A.99995.99995,0,0,0,23,44.29V63a1.00067,1.00067,0,0,0,1.65869.75293L32,57.3291l7.3418,6.42383A1.00118,1.00118,0,0,0,40,64a1.00149,1.00149,0,0,0,1-1V44.29A1.00037,1.00037,0,0,0,40.30371,43.33691Z" fill="#4294ff"/><path d="M40.30371,43.33691a1.00591,1.00591,0,0,0-1.11914.374,3.68179,3.68179,0,0,1-4.62208,1.11719A5.67817,5.67817,0,0,0,32,44.22278V57.3291l7.3418,6.42383A1.00118,1.00118,0,0,0,40,64a1.00149,1.00149,0,0,0,1-1V44.29A1.00037,1.00037,0,0,0,40.30371,43.33691Z" fill="#376cfb"/><path d="M49.71191,26.86133a5.66387,5.66387,0,0,0-2.48535-3.75488,3.65588,3.65588,0,0,1-1.65625-2.86719,5.64616,5.64616,0,0,0-6.32715-5.30957,3.65946,3.65946,0,0,1-3.11328-1.13281A5.66358,5.66358,0,0,0,32.00049,12H32a5.662,5.662,0,0,0-4.13037,1.79688,3.66509,3.66509,0,0,1-3.11182,1.13281,5.64558,5.64558,0,0,0-6.32763,5.30957,3.6585,3.6585,0,0,1-1.65625,2.86719,5.647,5.647,0,0,0-1.43457,8.13476,3.65952,3.65952,0,0,1,.57568,3.26172,5.64659,5.64659,0,0,0,4.12988,7.1543A3.65455,3.65455,0,0,1,22.582,43.78516a5.64623,5.64623,0,0,0,7.76221,2.82519,3.66465,3.66465,0,0,1,3.312,0A5.64505,5.64505,0,0,0,41.417,43.78613a3.65767,3.65767,0,0,1,2.53906-2.1289,5.64693,5.64693,0,0,0,4.12891-7.1543,3.65485,3.65485,0,0,1,.5752-3.26172A5.663,5.663,0,0,0,49.71191,26.86133Z" fill="#e6ecff"/><circle cx="32" cy="30" r="11" fill="#4294ff"/><path d="M38.61426,27.80566a1.00041,1.00041,0,0,0-.80762-.68066l-3.39258-.49316L32.897,23.55762a1.041,1.041,0,0,0-1.79394,0l-1.51709,3.07422-3.39209.49316a.99965.99965,0,0,0-.55469,1.70508l2.45459,2.39258-.57959,3.37988a1.00012,1.00012,0,0,0,1.45117,1.05371L32,34.06152l3.03516,1.59473a.99948.99948,0,0,0,1.45019-1.05371l-.58008-3.37891,2.45606-2.39355A1.00023,1.00023,0,0,0,38.61426,27.80566Z" fill="#376cfb"/><path d="M32,10a.99974.99974,0,0,1-1-1V1a1,1,0,0,1,2,0V9A.99974.99974,0,0,1,32,10Z" fill="#4294ff"/><path d="M23.96436,11.59863a1.00051,1.00051,0,0,1-.92432-.61718L21.4751,7.2041a1,1,0,1,1,1.84765-.76562l1.56495,3.77734a1,1,0,0,1-.92334,1.38281Z" fill="#4294ff"/><path d="M12.59814,22.96387a1,1,0,0,1-.38232-.07617L8.43848,21.32324a1,1,0,1,1,.76562-1.84765L12.98145,21.04a1,1,0,0,1-.38331,1.92383Z" fill="#4294ff"/><path d="M8.82178,40.60059a1,1,0,0,1-.3833-1.92383l3.77734-1.56446A1,1,0,0,1,12.98145,38.96L9.2041,40.52441A.99985.99985,0,0,1,8.82178,40.60059Z" fill="#4294ff"/><path d="M17.15088,16.15039a.99676.99676,0,0,1-.707-.293l-5.65674-5.65625a.99989.99989,0,0,1,1.41406-1.41406l5.65674,5.65625a1,1,0,0,1-.707,1.707Z" fill="#4294ff"/><path d="M11,31H3a1,1,0,0,1,0-2h8a1,1,0,0,1,0,2Z" fill="#4294ff"/><path d="M11.49414,51.50586a1,1,0,0,1-.707-1.707l5.65674-5.65625a.99989.99989,0,1,1,1.41406,1.41406l-5.65674,5.65625A.99676.99676,0,0,1,11.49414,51.50586Z" fill="#4294ff"/><path d="M40.03613,11.59863a1,1,0,0,1-.92383-1.38281l1.56446-3.77734a1,1,0,1,1,1.84765.76562L40.96,10.98145A1.00035,1.00035,0,0,1,40.03613,11.59863Z" fill="#4294ff"/><path d="M51.40137,22.96387A1,1,0,0,1,51.01855,21.04l3.77735-1.56445a1,1,0,1,1,.76562,1.84765L51.78418,22.8877A.99882.99882,0,0,1,51.40137,22.96387Z" fill="#4294ff"/><path d="M55.17871,40.60059a.99864.99864,0,0,1-.38281-.07618L51.01855,38.96a1,1,0,0,1,.76563-1.84766l3.77734,1.56446a1,1,0,0,1-.38281,1.92383Z" fill="#4294ff"/><path d="M46.84961,16.15039a1,1,0,0,1-.707-1.707l5.65625-5.65625a.99989.99989,0,0,1,1.41406,1.41406l-5.65625,5.65625A.99676.99676,0,0,1,46.84961,16.15039Z" fill="#4294ff"/><path d="M61,31H53a1,1,0,0,1,0-2h8a1,1,0,0,1,0,2Z" fill="#4294ff"/><path d="M52.50586,51.50586a.99676.99676,0,0,1-.707-.293l-5.65625-5.65625a.99989.99989,0,1,1,1.41406-1.41406l5.65625,5.65625a1,1,0,0,1-.707,1.707Z" fill="#4294ff"/></g></svg>