<svg xmlns="http://www.w3.org/2000/svg" viewBox="0 0 64 64"><title>Artboard-26</title><g id="Turnover"><path d="M35.08,14H29a3.00452,3.00452,0,0,0-3,3H25a2.996,2.996,0,0,0-3,3v6.27A1.99484,1.99484,0,0,1,23,26h3V22s3,2,12,2v2h3a1.99484,1.99484,0,0,1,1,.27V20.92A6.92229,6.92229,0,0,0,35.08,14Z" fill="#494a59"/><path d="M41,25H37v3a5.80321,5.80321,0,0,1-.35,2H41a2.00591,2.00591,0,0,0,2-2V27A2.00587,2.00587,0,0,0,41,25Z" fill="#f2c7c7"/><path d="M27,28V25H23a2.00587,2.00587,0,0,0-2,2v1a2.00591,2.00591,0,0,0,2,2h4.35A5.80321,5.80321,0,0,1,27,28Z" fill="#f2c7c7"/><path d="M36,30.46V37l-4,3-4-3V30.46a5.96469,5.96469,0,0,0,8,0Z" fill="#f2c7c7"/><path d="M44.54346,40.1261,41,38l-5-3-4,3-4-3-5,3-3.54346,2.1261A3.00009,3.00009,0,0,0,18,42.69861V47a1,1,0,0,0,1,1H45a1,1,0,0,0,1-1V42.69861A3.00009,3.00009,0,0,0,44.54346,40.1261Z" fill="#e6ecff"/><path d="M26,21v7a6,6,0,0,0,12,0V23C29,23,26,21,26,21Z" fill="#ffe1e1"/><polygon points="41 38 36 35 32 38 37 41 41 38" fill="#d0dbf7"/><polygon points="23 38 28 35 32 38 27 41 23 38" fill="#d0dbf7"/><polygon points="28 48 30 44 28.15 40.31 32 38 35.85 40.31 34 44 36 48 28 48" fill="#4294ff"/><polygon points="28.15 40.31 30 44 34 44 35.85 40.31 32 38 28.15 40.31" fill="#376cfb"/><path d="M42,45v3H40V45a1,1,0,0,1,2,0Z" fill="#d0dbf7"/><path d="M24,45v3H22V45a1,1,0,0,1,2,0Z" fill="#d0dbf7"/><path d="M46.58691,54.44336a.99574.99574,0,0,0-1.22461-.14844A25.98871,25.98871,0,0,1,6,32,25.66168,25.66168,0,0,1,9.58594,18.83691l2.4834,2.42676a1,1,0,0,0,1.69433-.60254c.35987-3.22168.40772-3.6416.55811-4.96289L15.04346,9.332A1.00047,1.00047,0,0,0,13.915,8.22852c-4.10986.55957-5.98975.82031-7.46875,1.02539-1.208.168-2.148.29882-3.82031.52441a1.00049,1.00049,0,0,0-.56494,1.707l3.125,3.04688A31.9904,31.9904,0,0,0,49.3252,58.88965a.9994.9994,0,0,0,.16308-1.5459Z" fill="#4294ff"/><path d="M58.81494,49.46582A31.99026,31.99026,0,0,0,14.6748,5.11035a.9994.9994,0,0,0-.16308,1.5459l2.90137,2.90039a.9959.9959,0,0,0,1.22461.14844A25.99448,25.99448,0,0,1,54.41846,45.166l-2.48975-2.43164a.99988.99988,0,0,0-1.69238.60351L48.95654,54.668a1.00074,1.00074,0,0,0,.99366,1.1123,1.0407,1.0407,0,0,0,.13476-.00879l1.7168-.23437c1.92676-.26172,1.92676-.26172,6.21142-.85254L61.377,54.2207a.9998.9998,0,0,0,.56153-1.706Z" fill="#4294ff"/></g></svg>