<svg xmlns="http://www.w3.org/2000/svg" viewBox="0 0 64 64"><title>Artboard-31</title><g id="Search_Resume" data-name="Search Resume"><path d="M43,1H12L0,13V62a1,1,0,0,0,1,1H43a1,1,0,0,0,1-1V2A1,1,0,0,0,43,1Z" fill="#e6ecff"/><path d="M43,25H36.14014a1,1,0,0,0-.9419,1.33594,13.96694,13.96694,0,0,1,0,9.32812A1,1,0,0,0,36.14014,37H43a.99974.99974,0,0,0,1-1V26A.99974.99974,0,0,0,43,25Z" fill="#376cfb"/><circle cx="22" cy="31" r="16" fill="#4294ff"/><circle cx="22" cy="31" r="12" fill="#376cfb"/><path d="M31.5387,38.25153A15.39859,15.39859,0,0,0,22,35a15.23018,15.23018,0,0,0-9.54279,3.246,11.95482,11.95482,0,0,0,19.08149.0055Z" fill="#2946ed"/><circle cx="22" cy="28" r="5" fill="#2946ed"/><path d="M39,52H5a1,1,0,0,1,0-2H39a1,1,0,0,1,0,2Z" fill="#4294ff"/><path d="M29,56H5a1,1,0,0,1,0-2H29a1,1,0,0,1,0,2Z" fill="#4294ff"/><path d="M17,60H5a1,1,0,0,1,0-2H17a1,1,0,0,1,0,2Z" fill="#4294ff"/><path d="M0,13H11a1,1,0,0,0,1-1V1Z" fill="#d0dbf7"/><path d="M64,23H43a1,1,0,0,0-1,1V38a1,1,0,0,0,1,1H64Z" fill="#4294ff"/></g></svg>