<svg xmlns="http://www.w3.org/2000/svg" viewBox="0 0 64 64"><title>Artboard-37</title><g id="employee_money" data-name="employee money"><circle cx="26" cy="31" r="25" fill="#4294ff"/><circle cx="26" cy="31" r="21" fill="#376cfb"/><path d="M51.08,20H45a3.00452,3.00452,0,0,0-3,3H41a2.996,2.996,0,0,0-3,3v7.27A1.99484,1.99484,0,0,1,39,33h3V29s3,2,12,2v2h3a1.99484,1.99484,0,0,1,1,.27V26.92A6.92229,6.92229,0,0,0,51.08,20Z" fill="#494a59"/><path d="M57,31H53v3a5.80321,5.80321,0,0,1-.35,2H57a2.00591,2.00591,0,0,0,2-2V33A2.00587,2.00587,0,0,0,57,31Z" fill="#f2c7c7"/><path d="M43,34V31H39a2.00587,2.00587,0,0,0-2,2v1a2.00591,2.00591,0,0,0,2,2h4.35A5.80321,5.80321,0,0,1,43,34Z" fill="#f2c7c7"/><path d="M48,39a5.9306,5.9306,0,0,1-4-1.54V43l4,4,4-4V37.46A5.9306,5.9306,0,0,1,48,39Z" fill="#f2c7c7"/><path d="M61.34,46.17,57,44l-5-3-4,4-4-4-5,3-4.34,2.17A2.99917,2.99917,0,0,0,33,48.85V57a1,1,0,0,0,1,1H62a1,1,0,0,0,1-1V48.85A2.99917,2.99917,0,0,0,61.34,46.17Z" fill="#e6ecff"/><path d="M42,27v7a6,6,0,0,0,12,0V29C45,29,42,27,42,27Z" fill="#ffe1e1"/><polygon points="57 44 52 41 48 45 53 48 57 44" fill="#d0dbf7"/><polygon points="39 44 44 41 48 45 43 48 39 44" fill="#d0dbf7"/><path d="M59,52v6H57V52a1,1,0,0,1,2,0Z" fill="#d0dbf7"/><path d="M39,52v6H37V52a1,1,0,0,1,2,0Z" fill="#d0dbf7"/><path d="M32,28a.99974.99974,0,0,0,1-1v-.93164A5.07372,5.07372,0,0,0,27.93213,21H27V20a1,1,0,0,0-2,0v1h-.93213a5.06747,5.06747,0,0,0-1.60254,9.875L25,31.72028V39h-.93213A3.07142,3.07142,0,0,1,21,35.93164V35a1,1,0,0,0-2,0v.93164A5.07372,5.07372,0,0,0,24.06787,41H25v1a1,1,0,0,0,2,0V41h.93213a5.06747,5.06747,0,0,0,1.60254-9.875L27,30.27972V23h.93213A3.07142,3.07142,0,0,1,31,26.06836V27A.99974.99974,0,0,0,32,28Zm-3.09814,5.02148A3.06791,3.06791,0,0,1,27.93213,39H27V32.38727ZM25,29.61273l-1.90186-.63421A3.06791,3.06791,0,0,1,24.06787,23H25Z" fill="#2946ed"/><polygon points="44 58 46 51 44.15 47.31 48 45 51.85 47.31 50 51 52 58 44 58" fill="#4294ff"/><polygon points="44.15 47.31 46 51 50 51 51.85 47.31 48 45 44.15 47.31" fill="#376cfb"/></g></svg>