<svg xmlns="http://www.w3.org/2000/svg" viewBox="0 0 64 64"><title>Artboard-10</title><g id="Choice"><path d="M32.75293.34131a1.03422,1.03422,0,0,0-1.50586,0l-7,8A1.00067,1.00067,0,0,0,25,10h3v8a.99974.99974,0,0,0,1,1h6a.99974.99974,0,0,0,1-1V10h3a1.00067,1.00067,0,0,0,.75293-1.65869Z" fill="#4294ff"/><path d="M18,28H10V25a.99977.99977,0,0,0-1.6582-.75244l-8,7a.99911.99911,0,0,0,0,1.50488l8,7A.99977.99977,0,0,0,10,39V36h8a.99974.99974,0,0,0,1-1V29A.99974.99974,0,0,0,18,28Z" fill="#4294ff"/><path d="M39,54H36V46a.99974.99974,0,0,0-1-1H29a.99974.99974,0,0,0-1,1v8H25a1.00067,1.00067,0,0,0-.75293,1.65869l7,8a1.00114,1.00114,0,0,0,1.50586,0l7-8A1.00067,1.00067,0,0,0,39,54Z" fill="#4294ff"/><path d="M63.6582,31.24756l-8-7A.99977.99977,0,0,0,54,25v3H46a.99974.99974,0,0,0-1,1v6a.99974.99974,0,0,0,1,1h8v3a.99967.99967,0,0,0,1.6582.75244l8-7a.99911.99911,0,0,0,0-1.50488Z" fill="#4294ff"/><path d="M35,22H28a2.01467,2.01467,0,0,0-2,2,2.996,2.996,0,0,0-3,3v6.27A1.99427,1.99427,0,0,1,24,33h2V30s3,0,4-2c0,0,1.33,3,8,3v2h2a1.99427,1.99427,0,0,1,1,.27V28A6.00475,6.00475,0,0,0,35,22Z" fill="#494a59"/><path d="M40,32H37v4a5.47014,5.47014,0,0,1-.09,1H40a2.00591,2.00591,0,0,0,2-2V34A2.00591,2.00591,0,0,0,40,32Z" fill="#f2c7c7"/><path d="M27,36V32H24a2.00591,2.00591,0,0,0-2,2v1a2.00591,2.00591,0,0,0,2,2h3.09A5.47014,5.47014,0,0,1,27,36Z" fill="#f2c7c7"/><path d="M30,27c-1,2-4,2-4,2v7a6,6,0,0,0,12,0V30C31.33331,30,30,27,30,27Z" fill="#ffe1e1"/></g></svg>