<svg xmlns="http://www.w3.org/2000/svg" viewBox="0 0 64 64"><title>Artboard-16</title><g id="Receptionist"><rect x="4" y="47" width="56" height="17" rx="1" ry="1" fill="#4294ff"/><path d="M38,14V31.71L34,30l-6-3-4,4-4-4-6,3-4,1.71V14a14,14,0,0,1,28,0Z" fill="#494a59"/><path d="M39.18005,31.22,34,29l-6-3-4,4-4-4-6,3L8.82,31.22A3.00284,3.00284,0,0,0,7,33.98V43a1,1,0,0,0,1,1H40a1,1,0,0,0,1-1V33.98A3.00284,3.00284,0,0,0,39.18005,31.22Z" fill="#e6ecff"/><path d="M18,10v7a6,6,0,0,0,12,0V12C21,12,18,10,18,10Z" fill="#ffe1e1"/><path d="M32,14H30v3a5.80321,5.80321,0,0,1-.35,2H32a2.00591,2.00591,0,0,0,2-2V16A2.00587,2.00587,0,0,0,32,14Z" fill="#f2c7c7"/><path d="M18,17V14H16a2.00587,2.00587,0,0,0-2,2v1a2.00591,2.00591,0,0,0,2,2h2.35A5.80321,5.80321,0,0,1,18,17Z" fill="#f2c7c7"/><path d="M24,23a5.9306,5.9306,0,0,1-4-1.54V26l4,4,4-4V21.46A5.9306,5.9306,0,0,1,24,23Z" fill="#f2c7c7"/><polygon points="34 29 28 26 24 30 30 33 34 29" fill="#d0dbf7"/><polygon points="14 29 20 26 24 30 18 33 14 29" fill="#d0dbf7"/><polygon points="19.33 44 22 36 20 32 24 30 28 32 26 36 28.67 44 19.33 44" fill="#4294ff"/><polygon points="20 32 22 36 26 36 28 32 24 30 20 32" fill="#376cfb"/><path d="M35.29,38.88,35,38.59V37a1,1,0,0,0-2,0v2a1.03273,1.03273,0,0,0,.29.71l.59.58A3.83825,3.83825,0,0,1,35,43v1h2V43A5.78645,5.78645,0,0,0,35.29,38.88Z" fill="#d0dbf7"/><path d="M14,36a1.003,1.003,0,0,0-1,1v1.59l-.29.29A5.78645,5.78645,0,0,0,11,43v1h2V43a3.83825,3.83825,0,0,1,1.12-2.71l.59-.58A1.03273,1.03273,0,0,0,15,39V37A1.003,1.003,0,0,0,14,36Z" fill="#d0dbf7"/><rect x="48" y="38" width="8" height="6" rx="1" ry="1" fill="#4294ff"/><path d="M52,32a6.00657,6.00657,0,0,0-6,6v1a1,1,0,0,0,1,1H57a1,1,0,0,0,1-1V38A6.00657,6.00657,0,0,0,52,32Z" fill="#376cfb"/><rect y="42" width="64" height="7" rx="1" ry="1" fill="#376cfb"/></g></svg>