<svg xmlns="http://www.w3.org/2000/svg" viewBox="0 0 64 64"><title>Artboard-39</title><g id="Laptop_job" data-name="Laptop job"><path d="M55,13H9a5.00588,5.00588,0,0,0-5,5V48a.99943.99943,0,0,0,1,1H59a.99943.99943,0,0,0,1-1V18A5.00588,5.00588,0,0,0,55,13Z" fill="#e6ecff"/><path d="M63,47H1a.99943.99943,0,0,0-1,1v5a4.004,4.004,0,0,0,4,4H60a4.004,4.004,0,0,0,4-4V48A.99943.99943,0,0,0,63,47Z" fill="#4294ff"/><rect x="8" y="17" width="48" height="26" rx="1" ry="1" fill="#d0dbf7"/><path d="M52,47H12v5a1,1,0,0,0,1,1H51a1,1,0,0,0,1-1Z" fill="#376cfb"/><path d="M45,7H19a3,3,0,0,0-3,3V43H48V10A3,3,0,0,0,45,7Z" fill="#4294ff"/><rect x="22" y="23" width="20" height="14" rx="3" ry="3" fill="#376cfb"/><path d="M36,25H28a.99943.99943,0,0,1-1-1V21a2.0026,2.0026,0,0,1,2-2h6a2.0026,2.0026,0,0,1,2,2v3A.99943.99943,0,0,1,36,25Zm-7-2h6V21H29Z" fill="#376cfb"/><path d="M45,7H19a3,3,0,0,0-3,3v3H48V10A3,3,0,0,0,45,7Z" fill="#376cfb"/><circle cx="19" cy="10" r="1" fill="#2946ed"/><circle cx="22" cy="10" r="1" fill="#2946ed"/><circle cx="25" cy="10" r="1" fill="#2946ed"/><path d="M45,11H34a1,1,0,0,1,0-2H45a1,1,0,0,1,0,2Z" fill="#2946ed"/><path d="M42,26a3.00328,3.00328,0,0,0-3-3H25a3.00328,3.00328,0,0,0-3,3v1.72015l9.68359,3.22809a.993.993,0,0,0,.63282,0L42,27.72058Z" fill="#2946ed"/><path d="M32,33a.99943.99943,0,0,1-1-1V29a1,1,0,0,1,2,0v3A.99943.99943,0,0,1,32,33Z" fill="#1f2ddb"/></g></svg>