<svg xmlns="http://www.w3.org/2000/svg" viewBox="0 0 64 64"><title>Artboard-20</title><g id="Exchange"><path d="M61,37V52l-3-1-5-2-3,4-3-4-5,2-3,1V37a11,11,0,0,1,22,0Z" fill="#494a59"/><path d="M61.95,51.32,58,50l-5-2-3,4-3-4-5,2-3.95,1.32A2.9911,2.9911,0,0,0,36,54.16V63a1,1,0,0,0,1,1H63a1,1,0,0,0,1-1V54.16A2.9911,2.9911,0,0,0,61.95,51.32Z" fill="#e6ecff"/><path d="M18.08,0H12A3.00452,3.00452,0,0,0,9,3H8A2.996,2.996,0,0,0,5,6v6.27A1.99484,1.99484,0,0,1,6,12H9V8s3,2,12,2v2h3a1.99484,1.99484,0,0,1,1,.27V6.92A6.92229,6.92229,0,0,0,18.08,0Z" fill="#494a59"/><path d="M24,11H20v3a5.80321,5.80321,0,0,1-.35,2H24a2.00591,2.00591,0,0,0,2-2V13A2.00587,2.00587,0,0,0,24,11Z" fill="#f2c7c7"/><path d="M10,14V11H6a2.00587,2.00587,0,0,0-2,2v1a2.00591,2.00591,0,0,0,2,2h4.35A5.80321,5.80321,0,0,1,10,14Z" fill="#f2c7c7"/><path d="M19,17.46V22l-4,4-4-4V17.46a5.96469,5.96469,0,0,0,8,0Z" fill="#f2c7c7"/><path d="M28.34,26.17,24,24l-5-3-4,4-4-4L6,24,1.66,26.17A2.99917,2.99917,0,0,0,0,28.85V37a1,1,0,0,0,1,1H29a1,1,0,0,0,1-1V28.85A2.99917,2.99917,0,0,0,28.34,26.17Z" fill="#e6ecff"/><path d="M9,7v7a6,6,0,0,0,12,0V9C12,9,9,7,9,7Z" fill="#ffe1e1"/><polygon points="24 24 19 21 15 25 20 28 24 24" fill="#d0dbf7"/><polygon points="6 24 11 21 15 25 10 28 6 24" fill="#d0dbf7"/><polygon points="10.2 38 13 31 11.15 27.31 15 25 18.85 27.31 17 31 19.8 38 10.2 38" fill="#4294ff"/><polygon points="15 25 11.15 27.31 13 31 17 31 18.85 27.31 15 25" fill="#376cfb"/><path d="M26,32v6H24V32a1,1,0,0,1,2,0Z" fill="#d0dbf7"/><path d="M6,32v6H4V32a1,1,0,0,1,2,0Z" fill="#d0dbf7"/><path d="M33,55H18V49h3a.99992.99992,0,0,0,.75879-1.65088l-6-7a1.032,1.032,0,0,0-1.51758,0l-6,7A.99992.99992,0,0,0,9,49h3v7a5.00588,5.00588,0,0,0,5,5H33a.99974.99974,0,0,0,1-1V56A.99974.99974,0,0,0,33,55Z" fill="#4294ff"/><path d="M56.9082,15.582A.99975.99975,0,0,0,56,15H53V8a5.00588,5.00588,0,0,0-5-5H28a.99974.99974,0,0,0-1,1V8a.99974.99974,0,0,0,1,1H47v6H44a.99992.99992,0,0,0-.75879,1.65088l6,7a.99915.99915,0,0,0,1.51758,0l6-7A.999.999,0,0,0,56.9082,15.582Z" fill="#4294ff"/><path d="M57,39H54l-.22589,4H57a1,1,0,0,0,1-1V40A1,1,0,0,0,57,39Z" fill="#f2c7c7"/><path d="M53,44v5l-3,4-3-4V44a5,5,0,0,0,6,0Z" fill="#f2c7c7"/><path d="M46,39H43a1,1,0,0,0-1,1v2a1,1,0,0,0,1,1h3.22589Z" fill="#f2c7c7"/><polygon points="58 50 53 48 50 52 55 55 58 50" fill="#d0dbf7"/><polygon points="46 64 48 58 46.67 54 50 52 53.33 54 52 58 54 64 46 64" fill="#4294ff"/><polygon points="46.67 54 48 58 52 58 53.33 54 50 52 46.67 54" fill="#376cfb"/><path d="M61,64H59a7.45855,7.45855,0,0,0-.79-3.34l-.1-.21A.997.997,0,0,1,58,60V58a1,1,0,0,1,2,0v1.76A9.60768,9.60768,0,0,1,61,64Z" fill="#d0dbf7"/><polygon points="42 50 47 48 50 52 45 55 42 50" fill="#d0dbf7"/><path d="M42,58v2a.997.997,0,0,1-.11.45l-.1.21A7.45855,7.45855,0,0,0,41,64H39a9.60768,9.60768,0,0,1,1-4.24V58a1,1,0,0,1,2,0Z" fill="#d0dbf7"/><path d="M45,35v6a5,5,0,0,0,10,0V37C46,37,45,35,45,35Z" fill="#ffe1e1"/></g></svg>